STARTFONT 2.1
COMMENT
COMMENT Converted from OpenType font "Q:\font stuff\winfont\Future HE Bold.ttf" by "otf2bdf 3.0".
COMMENT
FONT -FreeType-Future HE Bold-Medium-R-Normal--50-500-72-72-P-71-ISO10646-1
SIZE 50 72 72
FONTBOUNDINGBOX 53 45 -2 -10
STARTPROPERTIES 19
FOUNDRY "FreeType"
FAMILY_NAME "Future HE Bold"
WEIGHT_NAME "Medium"
SLANT "R"
SETWIDTH_NAME "Normal"
ADD_STYLE_NAME ""
PIXEL_SIZE 34
POINT_SIZE 500
RESOLUTION_X 72
RESOLUTION_Y 72
SPACING "P"
AVERAGE_WIDTH 71
CHARSET_REGISTRY "ISO10646"
CHARSET_ENCODING "1"
FONT_ASCENT 31
FONT_DESCENT 8
COPYRIGHT "-FreeType-Future HE Bold-Medium-R-Normal--50-500-72-72-P-71-ISO10646-1"
_OTF_FONTFILE "Q:\font stuff\winfont\Future HE Bold.ttf"
_OTF_PSNAME "FutureHE-Bold"
ENDPROPERTIES
CHARS 394
STARTCHAR 0020
ENCODING 32
SWIDTH 380 0
DWIDTH 19 0
BBX 0 0 0 0
BITMAP
ENDCHAR
STARTCHAR 0021
ENCODING 33
SWIDTH 380 0
DWIDTH 19 0
BBX 13 35 3 -5
BITMAP
7F00
FF00
E700
E700
E700
E700
E700
E700
E700
E700
E380
E3F0
E0F8
E038
E038
E038
E038
E038
E038
E038
E038
E038
7038
7FF8
1FF8
0000
0000
FFE0
FFF0
E038
E038
E038
7038
7FF8
1FF8
ENDCHAR
STARTCHAR 0022
ENCODING 34
SWIDTH 480 0
DWIDTH 24 0
BBX 18 9 3 23
BITMAP
7F1FC0
FF3FC0
FF39C0
FF39C0
FF39C0
FF39C0
FF39C0
FF3FC0
7E1F80
ENDCHAR
STARTCHAR 0023
ENCODING 35
SWIDTH 900 0
DWIDTH 45 0
BBX 38 19 3 12
BITMAP
0000FE0F80
0001FE0F80
0003DE1F80
03FF9FFFF8
07FF3FFFFC
070000001C
070000001C
07FCFFFFFC
01FCFFFFF8
0039C1F000
7FF9FFFF80
FFF1FFFFC0
E0000003C0
FFC7FDFFC0
7FCFFFFF80
03CE1F8000
039C1F0000
03FC3F0000
01F01C0000
ENDCHAR
STARTCHAR 0024
ENCODING 36
SWIDTH 700 0
DWIDTH 35 0
BBX 28 38 3 -4
BITMAP
003FC000
003FC000
0039C000
0FF9FFC0
3FF8FFE0
70000070
E3F8FC70
E7F9FE70
E739CE70
E739CE70
E739CFF0
E739C7E0
E739C000
E7F9C000
E3F9C000
7001C000
7FF9FF00
1FF9FFE0
003800F0
00380070
00380070
00380070
00380070
00380070
00380070
00380070
7E380070
FF380070
E7380070
E7380070
E7F80070
E3F00070
78000070
3FF8FFE0
0FF9FF80
0039C000
003FC000
003FC000
ENDCHAR
STARTCHAR 0025
ENCODING 37
SWIDTH 860 0
DWIDTH 43 0
BBX 38 32 3 -1
BITMAP
0FFFFFFFFC
3FFFFFFFFC
700000001C
E3F007FFDC
E7F80FFFFC
E7380E07DC
E7380E0F1C
E7380E3E3C
E7380E78F0
E7380EF1E0
E7F80FC780
E3F80F8F00
7000063C00
7FFFE07800
1FFFF1F000
0003E3C000
00078F8000
001F1FFFF0
003C0FFFFC
00F8C0001C
01E3C7F01C
07C7CFF01C
0F1FCE701C
3E3DCE701C
78F1CE701C
F3E1CE701C
E381CE701C
E701CFF01C
E701E7F01C
E700F0001C
FF007FFFF8
7F001FFFE0
ENDCHAR
STARTCHAR 0026
ENCODING 38
SWIDTH 1000 0
DWIDTH 50 0
BBX 44 32 3 -2
BITMAP
01FFFF800000
03FFFFE00000
070000F00000
071F80700000
071FC0780000
073DC0780000
073DC0780000
073DC0780000
073DC0700000
073DC0700000
03FFFFE00000
03FFFFC00000
00E038000000
07E03F0003E0
3FE03FE00FF0
780000F03C70
7000007078E0
E3FFC079F1E0
E7FFC07BC780
E701C07F8F00
E701C07E3E00
E701C07C7800
E701C030F000
E701C078F800
E701C07E3C00
E701C07F1F00
E701C07F8780
E7FFC079E3C0
F1FF8070F1E0
700000703C70
3FFFFFE01FF0
0FFFFF8007E0
ENDCHAR
STARTCHAR 0027
ENCODING 39
SWIDTH 280 0
DWIDTH 14 0
BBX 8 9 3 23
BITMAP
7F
FF
FF
FF
FF
FF
FF
FF
7E
ENDCHAR
STARTCHAR 0028
ENCODING 40
SWIDTH 500 0
DWIDTH 25 0
BBX 18 32 3 -1
BITMAP
01FFC0
0FFFC0
1F01C0
387FC0
71FFC0
73C000
770000
E70000
E70000
E70000
E70000
E70000
E70000
E70000
E70000
E70000
E70000
E70000
E70000
E70000
E70000
E70000
E70000
E70000
E70000
F78000
73C000
71FFC0
787FC0
3E01C0
0FFFC0
01FFC0
ENDCHAR
STARTCHAR 0029
ENCODING 41
SWIDTH 500 0
DWIDTH 25 0
BBX 18 32 3 -1
BITMAP
7FF000
FFFE00
E01F00
FFC780
7FF1C0
0079C0
0039C0
0039C0
0039C0
0039C0
0039C0
0039C0
0039C0
0039C0
0039C0
0039C0
0039C0
0039C0
0039C0
0039C0
0039C0
0039C0
0039C0
0039C0
0039C0
0039C0
0079C0
7FF1C0
FF8780
E01F00
FFFE00
7FF000
ENDCHAR
STARTCHAR 002A
ENCODING 42
SWIDTH 880 0
DWIDTH 44 0
BBX 38 26 3 2
BITMAP
00007C0000
0000FE0000
0001CE0000
01E1CE0F00
03F1CE1F80
0F7DCE79E0
0F1FCEF1E0
07CFCFC7C0
01E3CF8F00
00F9C63E00
3FFC007FF8
FFFE00FFFC
E00000001C
E00000001C
7FFE00FFFC
3FFC00FFF8
0078C63C00
01E3CF9F00
03C7CFC780
0F1FCFF3C0
0F3DCE79E0
07F9CE3FC0
01E1CE0F00
0001CE0000
0001FE0000
00007C0000
ENDCHAR
STARTCHAR 002B
ENCODING 43
SWIDTH 680 0
DWIDTH 34 0
BBX 28 18 3 6
BITMAP
001FC000
003FC000
003FC000
003FC000
003FC000
003FC000
3FFFFFE0
FFFFFFF0
FFFFFFF0
FFFFFFF0
7FFFFFF0
3FFFFFE0
003FC000
003FC000
003FC000
003FC000
003FC000
001FC000
ENDCHAR
STARTCHAR 002C
ENCODING 44
SWIDTH 400 0
DWIDTH 20 0
BBX 13 15 3 -8
BITMAP
3FF0
FFF8
E038
E038
E038
E038
E038
FF38
7FB8
0F38
1EF8
1FE0
3F80
7E00
7800
ENDCHAR
STARTCHAR 002D
ENCODING 45
SWIDTH 680 0
DWIDTH 34 0
BBX 28 6 3 12
BITMAP
7FFFFFE0
7FFFFFF0
FFFFFFF0
FFFFFFF0
FFFFFFF0
3FFFFFE0
ENDCHAR
STARTCHAR 002E
ENCODING 46
SWIDTH 380 0
DWIDTH 19 0
BBX 13 9 3 -1
BITMAP
3FF0
FFF8
E038
E038
E038
E038
E038
FFF8
7FF8
ENDCHAR
STARTCHAR 002F
ENCODING 47
SWIDTH 680 0
DWIDTH 34 0
BBX 28 35 3 0
BITMAP
000007F0
00000FF0
00001E70
00001CE0
000039C0
000039C0
00007380
0000F780
0000E700
0001CE00
0001CE00
00039C00
00073800
00073800
000E7000
001EF000
001CE000
0039C000
0039C000
00738000
00F78000
00E70000
01CE0000
03DE0000
039C0000
07380000
07380000
0E700000
1EF00000
1CE00000
39C00000
79C00000
73800000
FF800000
7F000000
ENDCHAR
STARTCHAR 0030
ENCODING 48
SWIDTH 780 0
DWIDTH 39 0
BBX 33 35 3 0
BITMAP
1FFFFFFE00
7FFFFFFF00
7000000380
E000000380
E000000380
E0FFE00380
E0FFC0F380
E0FF01F380
E0FE03F380
E0F80F7380
E0F01E7380
E0C0787380
E080F07380
E003C07380
E007807380
E01E007380
E03C007380
E03C007380
E03C007380
E03C007380
E03C007380
E03C007380
E03C007380
E03C007380
E03C007380
E03C007380
E03C007380
E03C007380
E03C007380
E03C007380
E01FFFF380
F00FFFE380
7800000780
3FFFFFFF00
0FFFFFFC00
ENDCHAR
STARTCHAR 0031
ENCODING 49
SWIDTH 580 0
DWIDTH 29 0
BBX 13 35 8 0
BITMAP
7FE0
FFF0
E038
FF38
7F38
0738
0738
0738
0738
0738
0738
0738
0738
0F38
1E38
7C38
7038
E038
E038
E038
E038
E038
E038
E038
E038
E038
E038
E038
E038
E038
E038
F038
7838
3FF8
0FF8
ENDCHAR
STARTCHAR 0032
ENCODING 50
SWIDTH 780 0
DWIDTH 39 0
BBX 33 35 3 0
BITMAP
7FFFFFFE00
FFFFFFFF00
E000000380
FFFFFFF380
7FFFFFF380
0000007380
0000007380
0000007380
0000007380
0000007380
0000007380
0000007380
0000007380
0FFFFFF380
1FFFFFF380
3800000380
700FFFFF80
F01FFFFE00
E03C000000
E03C000000
E03C000000
E03C000000
E03C000000
E03C000000
E03C000000
E03C000000
E03C001F00
E03C007F80
E03C007380
E03C007380
E01FFFF380
E00FFFE380
7800000780
3FFFFFFF00
0FFFFFFC00
ENDCHAR
STARTCHAR 0033
ENCODING 51
SWIDTH 780 0
DWIDTH 39 0
BBX 33 35 3 0
BITMAP
1FFFFFFE00
7FFFFFFF80
7000000380
E3FFFFF380
E7FFFFF380
E700007380
FF00007380
7F00007380
0000007380
0000007380
0000007380
0000007380
0000007380
001FFFF380
003FFFF380
0038000380
003FFC0380
001FFE0380
00000E0380
00000E0380
00000E0380
00000E0380
00000E0380
00000E0380
00000E0380
00000E0380
3E000E0380
FF000E0380
E7000E0380
E7000E0380
E7FFFE0380
E1FFFC0380
7800000380
3FFFFFFF00
0FFFFFFC00
ENDCHAR
STARTCHAR 0034
ENCODING 52
SWIDTH 680 0
DWIDTH 34 0
BBX 28 35 3 0
BITMAP
7F000000
FF000000
E7000000
E7000000
E7000000
E7000000
E7000000
E7000000
E7000000
E7000000
E7000000
E7000000
E7000000
E700FF80
E701FFE0
E701C0F0
E701C070
E701C070
E701C070
E701C070
E7FFC070
F1FF8070
70000070
3FFFC070
0FFFC070
0001C070
0001C070
0001C070
0001C070
0001C070
0001C070
0001E070
0000E070
00007FF0
00001FF0
ENDCHAR
STARTCHAR 0035
ENCODING 53
SWIDTH 800 0
DWIDTH 40 0
BBX 33 35 3 0
BITMAP
1FFFFFFF80
7FFFFFFF80
7000000380
E3FFFFFF80
E7FFFFFF80
E700000000
E700000000
E700000000
E700000000
E700000000
E700000000
E700000000
E700000000
E7FFFFFC00
E3FFFFFF00
7000000780
7FFFFC0380
1FFFFE0380
00000E0380
00000E0380
00000E0380
00000E0380
00000E0380
00000E0380
00000E0380
00000E0380
3E000E0380
FF000E0380
E7000E0380
E7000E0380
E7FFFE0380
E3FFFC0380
7800000380
3FFFFFFF00
0FFFFFFC00
ENDCHAR
STARTCHAR 0036
ENCODING 54
SWIDTH 780 0
DWIDTH 39 0
BBX 33 35 3 0
BITMAP
1FFFFFFE00
7FFFFFFF80
7000000380
E3FFFFF380
E7FFFFF380
E700007380
E700007F80
E700003F80
E700000000
E700000000
E700000000
E700000000
E700000000
E7FFFFFC00
E3FFFFFF00
E000000380
E00FFFE380
E01FFFF380
E03C007380
E03C007380
E03C007380
E03C007380
E03C007380
E03C007380
E03C007380
E03C007380
E03C007380
E03C007380
E03C007380
E03C007380
E01FFFF380
E00FFFE380
7800000380
3FFFFFFF00
0FFFFFFC00
ENDCHAR
STARTCHAR 0037
ENCODING 55
SWIDTH 680 0
DWIDTH 34 0
BBX 28 35 3 0
BITMAP
7FFFFFC0
FFFFFFF0
E0000070
FFFFFE70
7FFFFE70
00000E70
00000E70
00000E70
00000E70
00000E70
00000E70
00000E70
00000E70
00001E70
00003C70
0000F870
0000E070
0001C070
0001C070
0001C070
0001C070
0001C070
0001C070
0001C070
0001C070
0001C070
0001C070
0001C070
0001C070
0001C070
0001C070
0001E070
0000E070
00007FF0
00001FF0
ENDCHAR
STARTCHAR 0038
ENCODING 56
SWIDTH 780 0
DWIDTH 39 0
BBX 33 35 3 0
BITMAP
1FFFFFFE00
7FFFFFFF00
7000000380
E3FFFFF380
E7FFFFF380
E700007380
E700007380
E700007380
E700007380
E700007380
E700007380
E700007380
E700007380
E7FFFFF380
E3FFFFF380
E000000380
E00FFFE380
E01FFFF380
E03C007380
E03C007380
E03C007380
E03C007380
E03C007380
E03C007380
E03C007380
E03C007380
E03C007380
E03C007380
E03C007380
E03C007380
E01FFFF380
E00FFFE380
7800000780
3FFFFFFF00
0FFFFFFC00
ENDCHAR
STARTCHAR 0039
ENCODING 57
SWIDTH 780 0
DWIDTH 39 0
BBX 33 35 3 0
BITMAP
1FFFFFFE00
7FFFFFFF00
7000000380
E3FFFFF380
E7FFFFF380
E700007380
E700007380
E700007380
E700007380
E700007380
E700007380
E700007380
E700007380
E7FFFFF380
E3FFFFF380
7000000380
7FFFFC0380
1FFFFE0380
00000E0380
00000E0380
00000E0380
00000E0380
00000E0380
00000E0380
00000E0380
00000E0380
00000E0380
00000E0380
00000E0380
00000E0380
00000E0380
00000F0380
0000078380
000003FF80
000000FF80
ENDCHAR
STARTCHAR 003A
ENCODING 58
SWIDTH 380 0
DWIDTH 19 0
BBX 13 25 3 0
BITMAP
7FF8
FFF8
E038
E038
E038
E038
FFF8
FFF8
0000
0000
0000
0000
0000
0000
0000
0000
3FF0
FFF8
E038
E038
E038
E038
E038
FFF8
7FF8
ENDCHAR
STARTCHAR 003B
ENCODING 59
SWIDTH 380 0
DWIDTH 19 0
BBX 13 31 3 -7
BITMAP
7FF8
FFF8
E038
E038
E038
E038
FFF8
FFF8
0000
0000
0000
0000
0000
0000
0000
0000
3FF0
FFF8
E038
E038
E038
E038
E038
FF38
7FB8
0F38
1EF8
1FE0
3F80
7E00
7800
ENDCHAR
STARTCHAR 003C
ENCODING 60
SWIDTH 540 0
DWIDTH 27 0
BBX 23 18 2 3
BITMAP
001FFE
007FFE
00F00E
01E0FE
0781FC
0F03C0
1E0F00
781E00
F03C00
F03C00
781E00
1E0F00
0F03C0
0781FC
01E0FE
00F00E
007FFE
001FFE
ENDCHAR
STARTCHAR 003D
ENCODING 61
SWIDTH 680 0
DWIDTH 34 0
BBX 28 16 3 2
BITMAP
7FFFFFE0
7FFFFFF0
FFFFFFF0
FFFFFFF0
FFFFFFF0
3FFFFFE0
00000000
00000000
00000000
00000000
7FFFFFE0
FFFFFFF0
FFFFFFF0
FFFFFFF0
FFFFFFF0
3FFFFFE0
ENDCHAR
STARTCHAR 003E
ENCODING 62
SWIDTH 540 0
DWIDTH 27 0
BBX 23 18 3 3
BITMAP
FFF000
FFF800
E01E00
FE0F00
FF0780
0781E0
03C0F0
00F078
00781E
00781E
00F078
01C0F0
0781E0
FF0780
FE0F00
E01E00
FFF800
FFF000
ENDCHAR
STARTCHAR 003F
ENCODING 63
SWIDTH 720 0
DWIDTH 36 0
BBX 28 35 4 -4
BITMAP
FFFFFF00
FFFFFFC0
E00001E0
FFFFF870
FFFFFC70
00000E70
00000E70
00000E70
00000E70
00000E70
00FFFE70
03FFFCE0
078000E0
0700FFC0
0701FF80
0701C000
0701C000
0701C000
0701C000
0701C000
0701C000
0701C000
07038000
03FF0000
01FE0000
00000000
00000000
01FE0000
03FF0000
07038000
0703C000
07038000
07038000
03FF0000
01FE0000
ENDCHAR
STARTCHAR 0040
ENCODING 64
SWIDTH 1000 0
DWIDTH 50 0
BBX 43 29 3 -1
BITMAP
07FFFFFFFE00
3FFFFFFFFFC0
7800000001E0
7000000000E0
E3FFFFFFFCE0
E7FFFFFFFCE0
E70000001CE0
E703FFFC1CE0
E70FFFFF1CE0
E71E00079CE0
E73C7FE39CE0
E739FFF39CE0
E739C0739CE0
E739C0739CE0
E739C0739CE0
E739C0739CE0
E739C0739CE0
E739FFF3FCE0
E738FFF1FCE0
E71C000000E0
E71FFFFFFFC0
E707FFFFFF80
E70000000000
E70000000000
E7FFFFFF8000
E1FFFFFF8000
780000038000
3FFFFFFF8000
0FFFFFFF8000
ENDCHAR
STARTCHAR 0041
ENCODING 65
SWIDTH 900 0
DWIDTH 45 0
BBX 38 32 3 -1
BITMAP
007FFFFE00
01FFFFFF00
03C0000380
078FFFE380
071FFFF3C0
073C0073C0
073C0073C0
073C0073C0
073C0073C0
073C0073C0
073C0073C0
073C0073C0
073C0073C0
073FFFF3C0
1F1FFFF1F0
3C000000F8
700000001C
E01FFFFF9C
E03FFFFF9C
E03C00039C
E03C00039C
E03C00039C
E03C00039C
E03C00039C
E03C00039C
E03C00039C
E03C00039C
E03C00039C
E03C00039C
783C00039C
3FF80003FC
0FF80001FC
ENDCHAR
STARTCHAR 0042
ENCODING 66
SWIDTH 780 0
DWIDTH 39 0
BBX 33 32 3 -1
BITMAP
0FFFFF8000
3FFFFFE000
780000F000
F1FFFC7000
E3FFFE7800
E7000E7800
E7000E7800
E7000E7800
E7000E7800
E7000E7800
E7000E7800
E7000E7800
E7000E7800
E7FFFE3800
E3FFFE3E00
E000000F00
E000000780
E01FFFF380
E03FFFF380
E03C007380
E03C007380
E03C007380
E03C007380
E03C007380
E03C007380
E03C007380
E03C007380
E01FFFF380
E00FFFE380
7800000780
3FFFFFFF00
0FFFFFFC00
ENDCHAR
STARTCHAR 0043
ENCODING 67
SWIDTH 780 0
DWIDTH 39 0
BBX 33 32 3 -1
BITMAP
0FFFFFFC00
3FFFFFFF00
7800000780
F1FFFFE380
E7FFFFF380
E700007380
E700007380
E700007F80
E700003F00
E700000000
E700000000
E700000000
E700000000
E380000000
E3C0000000
E0F0000000
E078000000
E038000000
E03C000000
E03C000000
E03C000000
E03C000000
E03C000000
E03C001F00
E03C007F80
E03C007380
E03C007380
E01FFFF380
E00FFFE380
7800000380
3FFFFFFF00
0FFFFFFC00
ENDCHAR
STARTCHAR 0044
ENCODING 68
SWIDTH 780 0
DWIDTH 39 0
BBX 33 32 3 -1
BITMAP
0FFFFFFC00
3FFFFFFF00
7800000780
F1FFFFE380
E3FFFFF380
E700007380
E700007380
E700007380
E700007380
E700007380
E700007380
E700007380
E700007380
E380007380
E3E0007380
E0F0007380
E078007380
E038007380
E03C007380
E03C007380
E03C007380
E03C007380
E03C007380
E03C007380
E03C007380
E03C007380
E03C007380
E01FFFF380
E00FFFE380
7800000780
3FFFFFFF00
0FFFFFFC00
ENDCHAR
STARTCHAR 0045
ENCODING 69
SWIDTH 700 0
DWIDTH 35 0
BBX 28 32 3 -1
BITMAP
0FFFFFF0
3FFFFFF0
78000070
F1FFFFF0
E3FFFFF0
E7000000
E7000000
E7000000
E7000000
E7000000
E7000000
E7000000
E7000000
E7FFFC00
E3FFFE00
E0000E00
E0000E00
E01FFE00
E03FFC00
E0380000
E0380000
E0380000
E0380000
E0380000
E0380000
E0380000
E0380000
E03FFFF0
E01FFFF0
78000070
3FFFFFF0
0FFFFFF0
ENDCHAR
STARTCHAR 0046
ENCODING 70
SWIDTH 680 0
DWIDTH 34 0
BBX 28 32 3 -1
BITMAP
0FFFFFF0
3FFFFFF0
78000070
F1FFFFF0
E3FFFFF0
E7000000
E7000000
E7000000
E7000000
E7000000
E7000000
E7000000
E7000000
E7FFFC00
E3FFFE00
E0000E00
E0000E00
E01FFE00
E03FFC00
E0380000
E0380000
E0380000
E0380000
E0380000
E0380000
E0380000
E0380000
E0380000
E0380000
78380000
3FF80000
0FF80000
ENDCHAR
STARTCHAR 0047
ENCODING 71
SWIDTH 780 0
DWIDTH 39 0
BBX 33 32 3 0
BITMAP
0FFFFFFC00
3FFFFFFF00
7000000780
F1FFFFE380
E3FFFFF380
E700007380
E700007380
E700007F80
E700003F00
E700000000
E700000000
E700000000
E700000000
E38003FF00
E3C00FFF80
E0F00E0380
E0780E0380
E0380FF380
E03C03F380
E03C007380
E03C007380
E03C007380
E03C007380
E03C007380
E03C007380
E03C007380
E03C007380
E01FFFF380
E00FFFE380
7800000780
3FFFFFFF00
0FFFFFFC00
ENDCHAR
STARTCHAR 0048
ENCODING 72
SWIDTH 800 0
DWIDTH 40 0
BBX 33 32 3 0
BITMAP
7F00003F80
FF00007F80
E700007380
E700007380
E700007380
E700007380
E700007380
E700007380
E700007380
E700007380
E700007380
E700007380
E700007380
E7FFFFF380
E3FFFFF380
E000000380
E000000380
E01FFFF380
E03FFFF380
E03C007380
E03C007380
E03C007380
E03C007380
E03C007380
E03C007380
E03C007380
E03C007380
E03C007380
F03C007380
783C007380
3FFC007F80
0FF8003F80
ENDCHAR
STARTCHAR 0049
ENCODING 73
SWIDTH 400 0
DWIDTH 20 0
BBX 14 32 3 0
BITMAP
7F00
FF00
E700
E700
E700
E700
E700
E700
E700
E700
E700
E700
E700
E380
E3C0
E0F0
E078
E038
E03C
E03C
E03C
E03C
E03C
E03C
E03C
E03C
E03C
E03C
F03C
783C
3FFC
0FF8
ENDCHAR
STARTCHAR 004A
ENCODING 74
SWIDTH 720 0
DWIDTH 36 0
BBX 29 32 3 0
BITMAP
0000FE00
0001FE00
0001CE00
0001CE00
0001CE00
0001CE00
0001CE00
0001CE00
0001CE00
0001CE00
0001CE00
0001CE00
0001CE00
0001C700
0001C780
0001C1E0
0001C0F0
0001C070
0001C078
0001C078
0001C078
0001C078
0001C078
3E01C078
FF01C078
E701C078
E701C078
E7FFC078
F3FF8070
780000F0
3FFFFFE0
0FFFFF80
ENDCHAR
STARTCHAR 004B
ENCODING 75
SWIDTH 680 0
DWIDTH 34 0
BBX 28 32 3 -1
BITMAP
7F0007F0
FF000FF0
E7000E70
E7000E70
E7000E70
E7000E70
E7003C70
E70078F0
E701E3C0
E707C780
E70F1E00
E73E3C00
E778F000
E7F1E000
E7C78000
E38F0000
E03C0000
E03F8000
E00FE000
E018F000
E03C3C00
E03F1F00
E03FC780
E039E3E0
E038F8F0
E0383E70
E0380E70
E0380E70
F0380E70
78380E70
3FF80FF0
0FF807F0
ENDCHAR
STARTCHAR 004C
ENCODING 76
SWIDTH 700 0
DWIDTH 35 0
BBX 28 32 3 0
BITMAP
7F000000
FF000000
E7000000
E7000000
E7000000
E7000000
E7000000
E7000000
E7000000
E7000000
E7000000
E7000000
E7000000
E7800000
E3C00000
E0F00000
E0780000
E0380000
E0380000
E0380000
E0380000
E0380000
E0380000
E0380000
E0380000
E0380000
E0380000
E03FFFF0
E01FFFF0
78000070
3FFFFFF0
0FFFFFF0
ENDCHAR
STARTCHAR 004D
ENCODING 77
SWIDTH 1120 0
DWIDTH 56 0
BBX 48 32 3 0
BITMAP
0FFFFFFFFFF8
3FFFFFFFFFFE
70000000000F
F1FFFC1FFFC7
E3FFFE3FFFE7
E7000E7800E7
E7000E7800E7
E7000E7800E7
E7000E7800E7
E7000E7800E7
E7000E7800E7
E7000E7800E7
E7000E7800E7
E3800E7800E7
E3C00E7800E7
E0F00E7800E7
E0780E7800E7
E0380E7800E7
E03C0E7800E7
E03C0E7800E7
E03C0E7800E7
E03C0E7800E7
E03C0E7800E7
E03C0E7800E7
E03C0E7800E7
E03C0E7800E7
E03C0E7800E7
E03C0E7800E7
F03C0E7800E7
783C0E7800E7
3FFC0FF000FF
0FF807F0007F
ENDCHAR
STARTCHAR 004E
ENCODING 78
SWIDTH 900 0
DWIDTH 45 0
BBX 38 32 3 0
BITMAP
0FFFFFFFE0
3FFFFFFFF8
700000003C
F1FFFFFF1C
E3FFFFFF9C
E70000039C
E70000039C
E70000039C
E70000039C
E70000039C
E70000039C
E70000039C
E70000039C
E38000039C
E3C000039C
E0F000039C
E07800039C
E03800039C
E03C00039C
E03C00039C
E03C00039C
E03C00039C
E03C00039C
E03C00039C
E03C00039C
E03C00039C
E03C00039C
E03C00039C
F03C00039C
783C00039C
3FFC0003FC
0FF80001FC
ENDCHAR
STARTCHAR 004F
ENCODING 79
SWIDTH 780 0
DWIDTH 39 0
BBX 33 32 3 0
BITMAP
1FFFFFFC00
3FFFFFFF00
7000000780
F1FF800380
E3FFC00380
E701C00380
E701C00380
E701C00380
E701C00380
E700F00380
E7007FF380
E7001FF380
E700007380
E700007380
E700007380
E700007380
E700007380
E700007380
E700007380
E700007380
E700007380
E700007380
E700007380
E700007380
E700007380
E700007380
E700007380
E7FFFFF380
E1FFFFE380
7800000780
3FFFFFFF00
0FFFFFFC00
ENDCHAR
STARTCHAR 0050
ENCODING 80
SWIDTH 800 0
DWIDTH 40 0
BBX 33 32 3 -1
BITMAP
0FFFFFFC00
3FFFFFFF00
7800000780
F1FFFFE380
E3FFFFF380
E700007380
E700007380
E700007380
E700007380
E700007380
E700007380
E700007380
E700007380
E7FFFFF380
E3FFFFF380
E000000380
E000000F80
E01FFFFF00
E03FFFF800
E038000000
E038000000
E038000000
E038000000
E038000000
E038000000
E038000000
E038000000
E038000000
E038000000
7838000000
3FF8000000
0FF8000000
ENDCHAR
STARTCHAR 0051
ENCODING 81
SWIDTH 880 0
DWIDTH 44 0
BBX 38 35 3 -4
BITMAP
1FFFFFFC00
3FFFFFFF00
7000000780
F1FF800380
E3FFC003C0
E701C003C0
E701C003C0
E701C003C0
E701C003C0
E700F003C0
E7007FF3C0
E7001FF3C0
E7000073C0
E7000073C0
E7000073C0
E7000073C0
E7000073C0
E7000073C0
E7000073C0
E7000073C0
E7000073C0
E7000073C0
E7000FF3C0
E7001FE3C0
E7003C03C0
E7003803F0
E7003801F8
E7FFF8001C
E1FFF0001C
780000001C
3FFFFF801C
0FFFFFC01C
000001E01C
000000FFF8
0000003FF0
ENDCHAR
STARTCHAR 0052
ENCODING 82
SWIDTH 900 0
DWIDTH 45 0
BBX 38 32 3 -1
BITMAP
0FFFFFFE00
3FFFFFFF00
7800000380
F1FFFFE380
E3FFFFF3C0
E7000073C0
E7000073C0
E7000073C0
E7000073C0
E7000073C0
E7000073C0
E7000073C0
E7000073C0
E7FFFFF3C0
E3FFFFF1F0
E0000000F8
E00000001C
E01FFFFF9C
E03FFFFF9C
E03C00039C
E03C00039C
E03C00039C
E03C00039C
E03C00039C
E03C00039C
E03C00039C
E03C00039C
E03C00039C
E03C00039C
783C00039C
3FF80003FC
0FF80001FC
ENDCHAR
STARTCHAR 0053
ENCODING 83
SWIDTH 780 0
DWIDTH 39 0
BBX 33 32 3 -1
BITMAP
0FFFFFFC00
3FFFFFFF00
7800000780
F1FFFFE380
E3FFFFF380
E700007380
E700007380
E700007F80
E700001F00
E700000000
E700000000
E700000000
E700000000
E7FFFFF800
E3FFFFFF00
7000000F80
7800000380
3FFFFE0380
07FFFE0380
00000E0380
00000E0380
00000E0380
00000E0380
3E000E0380
FF000E0380
E7000E0380
E7000E0380
E7FFFE0380
E1FFFC0380
7800000780
3FFFFFFF00
0FFFFFFC00
ENDCHAR
STARTCHAR 0054
ENCODING 84
SWIDTH 860 0
DWIDTH 43 0
BBX 38 32 2 -1
BITMAP
7FFFFFFFFC
FFFFFFFFFC
E00000001C
FFFF87FFFC
FFFFCFFFFC
0001CE0000
0001CE0000
0001CE0000
0001CE0000
0001CE0000
0001CE0000
0001CE0000
0001CE0000
0001CF0000
0001C78000
0001C1E000
0001C0F000
0001C07000
0001C07000
0001C07000
0001C07000
0001C07000
0001C07000
0001C07000
0001C07000
0001C07000
0001C07000
0001C07000
0001C07000
0000E07000
00007FF000
00001FF000
ENDCHAR
STARTCHAR 0055
ENCODING 85
SWIDTH 780 0
DWIDTH 39 0
BBX 33 32 3 -1
BITMAP
7F00003F80
FF00007F80
E700007380
E700007380
E700007380
E700007380
E700007380
E700007380
E700007380
E700007380
E700007380
E700007380
E700007380
E380007380
E3C0007380
E0F0007380
E078007380
E038007380
E03C007380
E03C007380
E03C007380
E03C007380
E03C007380
E03C007380
E03C007380
E03C007380
E03C007380
E01FFFF380
E00FFFE380
7800000380
3FFFFFFF00
0FFFFFFC00
ENDCHAR
STARTCHAR 0056
ENCODING 86
SWIDTH 780 0
DWIDTH 39 0
BBX 33 32 3 -1
BITMAP
7F00003F80
FF00007F80
E700007380
E700007380
E700007380
E700007380
E700007380
E700007380
E700007380
E700007380
E700007380
E700007380
E700007380
E380007380
E3C0007380
E0F0007380
E078007380
E038007380
E03C007380
E03C00F380
E03C03C780
E03C0F8F00
E03C1E3C00
E03C7C7800
E03CF1F000
E03FC3C000
E03F8F8000
E01E1E0000
E00C3C0000
7800F00000
3FFFE00000
0FFF800000
ENDCHAR
STARTCHAR 0057
ENCODING 87
SWIDTH 1080 0
DWIDTH 54 0
BBX 48 32 3 0
BITMAP
7F0007F0007F
FF000FF000FF
E7000E7800E7
E7000E7800E7
E7000E7800E7
E7000E7800E7
E7000E7800E7
E7000E7800E7
E7000E7800E7
E7000E7800E7
E7000E7800E7
E7000E7800E7
E7000E7800E7
E3800E7800E7
E3E00E7800E7
E0F00E7800E7
E0780E7800E7
E0380E7800E7
E03C0E7800E7
E03C0E7800E7
E03C0E7800E7
E03C0E7800E7
E03C0E7800E7
E03C0E7800E7
E03C0E7800E7
E03C0E7800E7
E03C0E7800E7
E03FFE7FFFE7
F00FFC1FFFC7
78000000000F
3FFFFFFFFFFE
0FFFFFFFFFF8
ENDCHAR
STARTCHAR 0058
ENCODING 88
SWIDTH 900 0
DWIDTH 45 0
BBX 39 32 3 -1
BITMAP
03F8003F80
07FC007FC0
073C007380
073C007380
073C007380
073C007380
073C007380
073C007380
039C007380
03DF03F780
01E7FFCF00
00F0FE1E00
003C007800
07FFC7FFC0
3FFFC7FFF8
780000003C
700000001C
E01FFFFF8E
E03FFFFF8E
E03C00038E
E03C00038E
E03C00038E
E03C00038E
E03C00038E
E03C00038C
E03C00039C
E03C00039C
E03C00039C
E03C00039C
783C00039C
3FFC0003FC
0FF80001FC
ENDCHAR
STARTCHAR 0059
ENCODING 89
SWIDTH 680 0
DWIDTH 34 0
BBX 28 32 3 -1
BITMAP
7F0007F0
FF000FF0
E7000E70
E7000E70
E7000E70
E7000E70
E7000E70
E7000E70
E3800E70
E3E03E70
E1FFF870
E03FE070
70000070
7FF007E0
0FF80FC0
00380E00
00380E00
00380E00
00380E00
00380E00
00380E00
00380E00
00380E00
00380E00
00380E00
00380E00
00380E00
00380E00
00380E00
001E0E00
000FFE00
0003FE00
ENDCHAR
STARTCHAR 005A
ENCODING 90
SWIDTH 700 0
DWIDTH 35 0
BBX 29 32 3 -1
BITMAP
7FFFFF80
FFFFFFE0
E00000F0
FFFFFC70
7FFFFE78
00001E78
00003C70
0000F0F0
0003E1E0
00078780
001F0F00
007C3C00
00F0F800
03E1E000
0F87C000
3E1F0000
7C1C0000
F0380000
E0380000
E0380000
E0380000
E0380000
E0380000
E0380000
E0380000
E0380000
E0380000
E03FFFF0
E01FFFF0
78000070
3FFFFFF0
0FFFFFF0
ENDCHAR
STARTCHAR 005B
ENCODING 91
SWIDTH 400 0
DWIDTH 20 0
BBX 13 38 3 -4
BITMAP
7FF8
FFF8
E038
E038
E038
E038
E038
E038
E038
E038
E038
E038
E038
E3F8
E7F8
E700
E700
E700
E700
E700
E700
E700
E700
E7F8
E3F8
E038
E038
E038
E038
E038
E038
E038
E038
E038
E038
E038
FFF8
7FF8
ENDCHAR
STARTCHAR 005C
ENCODING 92
SWIDTH 680 0
DWIDTH 34 0
BBX 28 35 3 0
BITMAP
7F000000
FF800000
73800000
39C00000
3DE00000
1CE00000
0E700000
0E700000
07380000
07BC0000
039C0000
01CE0000
01EF0000
00E70000
00F38000
00738000
0039C000
003DE000
001CE000
000E7000
000E7000
00073800
00079C00
00039C00
0001CE00
0001EF00
0000E700
00007380
00007380
000039C0
00003DE0
00001CE0
00000E70
00000FF0
000007F0
ENDCHAR
STARTCHAR 005D
ENCODING 93
SWIDTH 400 0
DWIDTH 20 0
BBX 13 38 3 -4
BITMAP
FFF8
FFF8
E038
E038
E038
E038
E038
E038
E038
E038
E038
E038
E038
FF38
7F38
0738
0738
0738
0738
0738
0738
0738
0738
7F38
FF38
E038
E038
E038
E038
E038
E038
E038
E038
E038
E038
E038
FFF8
7FF8
ENDCHAR
STARTCHAR 005E
ENCODING 94
SWIDTH 500 0
DWIDTH 25 0
BBX 27 25 -1 5
BITMAP
003F8000
007FC000
00FFE000
01FFF000
03FFF800
07FFFC00
0FFFFE00
1FFFFF00
3FFFFF80
7FFFBFC0
FC7F87E0
E07F80E0
007F8000
007F8000
007F8000
007F8000
007F8000
007F8000
007F8000
007F8000
007F8000
007F8000
007F8000
007F8000
003F8000
ENDCHAR
STARTCHAR 005F
ENCODING 95
SWIDTH 800 0
DWIDTH 40 0
BBX 43 5 -2 0
BITMAP
7FFFFFFFFFE0
7FFFFFFFFFE0
7FFFFFFFFFE0
FFFFFFFFFFE0
7FFFFFFFFFE0
ENDCHAR
STARTCHAR 0060
ENCODING 96
SWIDTH 380 0
DWIDTH 19 0
BBX 10 7 5 25
BITMAP
7C00
FF00
E780
E3C0
F1C0
7FC0
3FC0
ENDCHAR
STARTCHAR 0061
ENCODING 97
SWIDTH 680 0
DWIDTH 34 0
BBX 28 25 3 0
BITMAP
3FFFFFC0
7FFFFFE0
F00000F0
E3FFFC70
E7FFFE70
E7000E70
FF000E70
FF000E70
00000E70
00000E70
3FFFFE70
7FFFFC70
F0000070
E03FFC70
E03FFE70
E0380E70
E0380E70
E0380E70
E0380E70
E0380E70
E03FFE70
E01FFC70
700000E0
7FFFFFC0
1FFFFF80
ENDCHAR
STARTCHAR 0062
ENCODING 98
SWIDTH 680 0
DWIDTH 34 0
BBX 28 32 3 -1
BITMAP
7E000000
FF000000
E7000000
E7000000
E7000000
E7000000
E7000000
E7FFFFC0
E3FFFFE0
E00000F0
E3FFFC70
E7FFFE70
E7000E70
E7000E70
E7000E70
E7000E70
E7000E70
E3C00E70
E1E00E70
E0F00E70
E0380E70
E0380E70
E0380E70
E0380E70
E0380E70
E0380E70
E0380E70
E03FFE70
E01FFC70
F00000E0
7FFFFFE0
1FFFFF80
ENDCHAR
STARTCHAR 0063
ENCODING 99
SWIDTH 680 0
DWIDTH 34 0
BBX 28 25 3 0
BITMAP
FFFFFFC0
FFFFFFE0
E00000F0
E3FFFC70
E7FFFE70
E7000E70
E7000FF0
E7000FF0
E7000000
E7000000
E3C00000
E1E00000
E0F00000
E0380000
E0380000
E0380000
E03807C0
E0380FF0
E0380E70
E0380E70
E03FFE70
E01FFC70
F00000E0
7FFFFFE0
1FFFFF80
ENDCHAR
STARTCHAR 0064
ENCODING 100
SWIDTH 680 0
DWIDTH 34 0
BBX 28 32 3 -1
BITMAP
000007E0
00000FF0
00000E70
00000E70
00000E70
00000E70
00000E70
3FFFFE70
7FFFFC70
F0000070
E3FFFC70
E7FFFE70
E7000E70
E7000E70
E7000E70
E7000E70
E7000E70
E3C00E70
E1E00E70
E0F00E70
E0380E70
E0380E70
E0380E70
E0380E70
E0380E70
E0380E70
E0380E70
E03FFE70
E01FFC70
F00000E0
7FFFFFE0
1FFFFF80
ENDCHAR
STARTCHAR 0065
ENCODING 101
SWIDTH 680 0
DWIDTH 34 0
BBX 28 25 3 0
BITMAP
3FFFFFC0
7FFFFFE0
F00000F0
E3FFFC70
E7FFFE70
E7000E70
E7000E70
E7000E70
E7000E70
E7000E70
E7FFFE70
E3FFFC70
E00000E0
E03FFFE0
E03FFF80
E0380000
E03807E0
E0380FF0
E0380E70
E0380E70
E03FFE70
E01FFC70
F00000E0
7FFFFFE0
1FFFFF80
ENDCHAR
STARTCHAR 0066
ENCODING 102
SWIDTH 380 0
DWIDTH 19 0
BBX 13 32 3 -1
BITMAP
1FF0
7FF8
F038
E3F8
E7F8
E700
E700
E7F8
E3F8
E038
E3F8
E7F0
E700
E700
E700
E700
E700
E3C0
E1E0
E0F0
E038
E038
E038
E038
E038
E038
E038
E038
E038
7038
7FF8
1FF0
ENDCHAR
STARTCHAR 0067
ENCODING 103
SWIDTH 680 0
DWIDTH 34 0
BBX 28 32 3 -7
BITMAP
3FFFFFC0
7FFFFFE0
F00000F0
E3FFFC70
E7FFFE70
E7000E70
E7000E70
E7000E70
E7000E70
E7000E70
E7003C70
E7007870
E701F070
E701C070
E701C070
E701C070
E701C070
E701C070
E701C070
E701C070
E7FFC070
E3FF8070
70000070
7FFFFC70
1FFFFE70
00000E70
7FFFFE70
FFFFFE70
E0000070
E00003E0
FFFFFFC0
3FFFFE00
ENDCHAR
STARTCHAR 0068
ENCODING 104
SWIDTH 680 0
DWIDTH 34 0
BBX 28 32 3 -1
BITMAP
7E000000
FF000000
E7000000
E7000000
E7000000
E7000000
E7000000
E7FFFFC0
E3FFFFE0
E00000F0
E3FFFC70
E7FFFE70
E7000E70
E7000E70
E7000E70
E7000E70
E7000E70
E3C00E70
E1E00E70
E0700E70
E0380E70
E0380E70
E0380E70
E0380E70
E0380E70
E0380E70
E0380E70
E0380E70
E0380E70
F0380E70
7FF80FF0
1FF00FE0
ENDCHAR
STARTCHAR 0069
ENCODING 105
SWIDTH 380 0
DWIDTH 19 0
BBX 14 34 2 -1
BITMAP
7E00
FF00
E380
F1C0
78E0
3FE0
1FC0
0000
0000
7F80
7F80
7380
7380
7380
7380
7380
7380
7380
7380
71E0
70F0
7078
701C
701C
701C
701C
701C
701C
701C
701C
701C
381C
3FFC
0FF8
ENDCHAR
STARTCHAR 006A
ENCODING 106
SWIDTH 380 0
DWIDTH 19 0
BBX 17 37 -1 -5
BITMAP
0FC000
1FE000
1C7000
1E3800
0F1C00
07FC00
03F800
000000
000000
0FF000
0FF000
0E7000
0E7000
0E7000
0E7000
0E7000
0E7000
0E7000
0E7000
0E7800
0E1E00
0E0F00
0E0380
0E0380
0E0380
0E0380
0E0380
0E0380
0E0380
0E0380
0E0380
1E0780
FC0F00
F83C00
E1F800
FFE000
FF0000
ENDCHAR
STARTCHAR 006B
ENCODING 107
SWIDTH 680 0
DWIDTH 34 0
BBX 28 32 3 -1
BITMAP
7E000000
FF000000
E7000000
E7000000
E7000000
E7000000
E7000000
E7000FF0
E7001FF0
E7007870
E700F1E0
E703C3C0
E7078F80
E71E1E00
E73C7C00
E7F0F000
E7E3E000
E7878000
E71F0000
E03C0000
E03F0000
E03FC000
E011E000
E0387800
E03E3E00
E03F0F00
E03BC7C0
E039E1E0
E0387870
70383C70
7FF81FF0
1FF00FF0
ENDCHAR
STARTCHAR 006C
ENCODING 108
SWIDTH 400 0
DWIDTH 20 0
BBX 13 32 3 0
BITMAP
7F00
FF00
E700
E700
E700
E700
E700
E3C0
E1E0
E078
E038
E038
E038
E038
E038
E038
E038
E038
E038
E038
E038
E038
E038
E038
E038
E038
E038
E038
F038
7838
3FF8
0FF8
ENDCHAR
STARTCHAR 006D
ENCODING 109
SWIDTH 880 0
DWIDTH 44 0
BBX 38 25 3 0
BITMAP
1FFFFFFFF0
3FFFFFFFFC
700000001C
E3FFC7FF9C
E7FFCFFF9C
E701CE039C
E701CE039C
E701CE039C
E701CE039C
E701CF039C
E3C1C7839C
E1F1C3E39C
E079C0F39C
E039C0739C
E03DC07B9C
E03DC07B9C
E03DC07B9C
E03DC07B9C
E03DC07B9C
E03DC07B9C
E03DC07B9C
F03DC07B9C
783CF07B9C
3FFC7FF3FC
0FF81FF1F8
ENDCHAR
STARTCHAR 006E
ENCODING 110
SWIDTH 680 0
DWIDTH 34 0
BBX 28 25 3 0
BITMAP
1FFFFFC0
3FFFFFE0
70000070
E3FFFE70
E7FFFE70
E7000E70
E7000E70
E7000E70
E7000E70
E7000E70
E3C00E70
E1F00E70
E0780E70
E0380E70
E03C0E70
E03C0E70
E03C0E70
E03C0E70
E03C0E70
E03C0E70
E03C0E70
F03C0E70
783C0E70
3FFC0FF0
0FF807E0
ENDCHAR
STARTCHAR 006F
ENCODING 111
SWIDTH 680 0
DWIDTH 34 0
BBX 28 25 3 0
BITMAP
3FFFFFC0
7FFFFFE0
F00000F0
E3FFFC70
E7FFFE70
E7000E70
E7000E70
E7000E70
E7000E70
E7000E70
E3C00E70
E1E00E70
E0F00E70
E0380E70
E0380E70
E0380E70
E0380E70
E0380E70
E0380E70
E0380E70
E03FFE70
E01FFC70
F00000E0
7FFFFFE0
1FFFFF80
ENDCHAR
STARTCHAR 0070
ENCODING 112
SWIDTH 680 0
DWIDTH 34 0
BBX 28 35 3 -10
BITMAP
3FFFFFC0
7FFFFFE0
F00000F0
E3FFFC70
E7FFFE70
E7000E70
E7000E70
E7000E70
E7000E70
E7000E70
E3C00E70
E1E00E70
E0F00E70
E0380E70
E0380E70
E0380E70
E0380E70
E0380E70
E0380E70
E0380E70
E03FFE70
E01FFC70
E00000E0
E7FFFFE0
E7FFFF80
E7000000
E7000000
E7000000
E7000000
E7000000
E7000000
E7000000
E7000000
FF000000
7E000000
ENDCHAR
STARTCHAR 0071
ENCODING 113
SWIDTH 680 0
DWIDTH 34 0
BBX 28 35 3 -10
BITMAP
3FFFFFC0
7FFFFFE0
F00000F0
E3FFFC70
E7FFFE70
E7000E70
E7000E70
E7000E70
E7000E70
E7000E70
E3C00E70
E1E00E70
E0F00E70
E0380E70
E0380E70
E0380E70
E0380E70
E0380E70
E0380E70
E0380E70
E03FFE70
E01FFC70
F0000070
7FFFFE70
1FFFFE70
00000E70
00000E70
00000E70
00000E70
00000E70
00000E70
00000E70
00000E70
00000FF0
000007E0
ENDCHAR
STARTCHAR 0072
ENCODING 114
SWIDTH 580 0
DWIDTH 29 0
BBX 23 25 3 0
BITMAP
1FFFFC
7FFFFE
F0000E
E7FFFE
E7FFFC
E70000
E70000
E70000
E70000
E70000
E3C000
E1E000
E0F000
E03800
E03800
E03800
E03800
E03800
E03800
E03800
E03800
E03800
703800
7FF800
1FF000
ENDCHAR
STARTCHAR 0073
ENCODING 115
SWIDTH 680 0
DWIDTH 34 0
BBX 28 25 3 -1
BITMAP
1FFFFF80
7FFFFFE0
F00000F0
E3FFFC70
E7FFFE70
E7000E70
E7000E70
E7000FF0
E70003C0
E7000000
E7FFFF80
E3FFFFE0
F00000E0
7FFF8070
1FFFC070
0001C070
0001C070
FF01C070
FF01C070
E701C070
E7FFC070
E3FF8070
F00000F0
7FFFFFE0
1FFFFF80
ENDCHAR
STARTCHAR 0074
ENCODING 116
SWIDTH 580 0
DWIDTH 29 0
BBX 23 32 3 0
BITMAP
07F000
07F800
073800
073800
073800
073800
073800
FF3FFC
FC1FFE
E0000E
FE3FFE
FF3FFC
073800
073800
073800
073800
073800
073C00
071F00
070780
0703C0
0701C0
0701C0
0701C0
0701C0
0701C0
0701C0
0701C0
0701C0
0781C0
03FFC0
00FF80
ENDCHAR
STARTCHAR 0075
ENCODING 117
SWIDTH 680 0
DWIDTH 34 0
BBX 28 25 3 0
BITMAP
FF000FF0
FF000FF0
E7000E70
E7000E70
E7000E70
E7000E70
E7000E70
E7000E70
E7000E70
E7000E70
E7800E70
E3E00E70
E0F00E70
E0380E70
E0380E70
E0380E70
E0380E70
E0380E70
E0380E70
E0380E70
E03FFE70
E01FFC70
F00000E0
7FFFFFE0
1FFFFF00
ENDCHAR
STARTCHAR 0076
ENCODING 118
SWIDTH 680 0
DWIDTH 34 0
BBX 28 25 3 0
BITMAP
FF000FF0
FF000FF0
E7000E70
E7000E70
E7000E70
E7000E70
E7000E70
E7000E70
E7000E70
E7000E70
E7800E70
E1E00E70
E0F03E70
E03878F0
E039E1E0
E03BC780
E03F0F00
E03E3C00
E0187800
E001E000
E003C000
E00F0000
F01E0000
7FF80000
1FE00000
ENDCHAR
STARTCHAR 0077
ENCODING 119
SWIDTH 880 0
DWIDTH 44 0
BBX 38 25 3 0
BITMAP
FF01FE03FC
FF01FE03FC
E701CE039C
E701CE039C
E701CE039C
E701CE039C
E701CE039C
E701CE039C
E701CE039C
E701CE039C
E781CF039C
E3E1C3C39C
E0F1C1F39C
E079C0739C
E039C0739C
E039C0739C
E039C0739C
E039C0739C
E039C0739C
E039C0739C
E03FC07F9C
E01F803F1C
F00000003C
7FFFFFFFF8
1FFFFFFFE0
ENDCHAR
STARTCHAR 0078
ENCODING 120
SWIDTH 680 0
DWIDTH 34 0
BBX 28 25 3 0
BITMAP
7F0007F0
FF000FF0
E7000E70
E7000E70
E7000E70
E7000E70
E7800E70
E3FFFE70
71FFF870
3F000FE0
1FC03FC0
00E03800
00E03800
0FE03F80
3FE03FE0
780000F0
F00FFC70
E03FFE70
E0380E70
E0380E70
E0380E70
E0380E70
78380E70
3FF80FF0
0FF807F0
ENDCHAR
STARTCHAR 0079
ENCODING 121
SWIDTH 680 0
DWIDTH 34 0
BBX 28 32 3 -7
BITMAP
7F0007F0
FF000FF0
E7000E70
E7000E70
E7000E70
E7000E70
E7000E70
E7000E70
E7000E70
E7800E70
E3C00E70
E1F00E70
E0780E70
E0380E70
E0380E70
E0380E70
E0380E70
E0380E70
E0380E70
E0380E70
E03FFE70
F01FFC70
78000070
3FFFFE70
0FFFFE70
00000E70
7FFFFE70
FFFFFE70
E0000070
E00001F0
7FFFFFC0
3FFFFE00
ENDCHAR
STARTCHAR 007A
ENCODING 122
SWIDTH 700 0
DWIDTH 35 0
BBX 29 25 3 0
BITMAP
7FFFFFC0
FFFFFFE0
E0000070
FFFFFE70
7FFFFE78
00001E78
00007C70
0000F0F0
0003C3C0
000F8780
001E1E00
00787C00
01F0F000
03C3E000
0F078000
3E1E0000
783C0000
E0380000
E0380000
E0380000
E03FFFF0
E01FFFF0
78000070
3FFFFFF0
0FFFFFF0
ENDCHAR
STARTCHAR 007B
ENCODING 123
SWIDTH 480 0
DWIDTH 24 0
BBX 18 38 3 -4
BITMAP
00FFC0
03FFC0
0381C0
071FC0
073FC0
073C00
073C00
073C00
073C00
073C00
073C00
073C00
073C00
073C00
0F3C00
FE3C00
FBFC00
E3F800
E70000
E70000
E7F800
F9FC00
FE3C00
0F3C00
073C00
073C00
073C00
073C00
073C00
073C00
073C00
073C00
073C00
073FC0
071FC0
0381C0
03FFC0
00FFC0
ENDCHAR
STARTCHAR 007C
ENCODING 124
SWIDTH 300 0
DWIDTH 15 0
BBX 8 38 3 -4
BITMAP
7F
FF
E7
E7
E7
E7
E7
E7
E7
E7
E7
E7
E7
E7
E7
E7
E7
E7
E7
E7
E7
E7
E7
E7
E7
E7
E7
E7
E7
E7
E7
E7
E7
E7
E7
E7
FF
7F
ENDCHAR
STARTCHAR 007D
ENCODING 125
SWIDTH 480 0
DWIDTH 24 0
BBX 19 38 3 -4
BITMAP
7FE000
FFF800
F03800
FF1C00
7F1C00
071C00
071C00
071C00
071C00
071C00
071C00
071C00
071C00
071C00
071E00
070FE0
07F1E0
03F8E0
003CE0
003CE0
03F8E0
07F3E0
070FE0
071E00
071C00
071C00
071C00
071C00
071C00
071C00
071C00
071C00
071C00
7F1C00
7F3800
703800
7FF000
7FE000
ENDCHAR
STARTCHAR 007E
ENCODING 126
SWIDTH 820 0
DWIDTH 41 0
BBX 33 9 3 23
BITMAP
03FF801F80
0FFFE07F80
1E00F0F380
783C7FC380
70FF1F8780
E1E7800F00
E783E03C00
FF00FFF800
7C003FC000
ENDCHAR
STARTCHAR 00A0
ENCODING 160
SWIDTH 380 0
DWIDTH 19 0
BBX 0 0 0 0
BITMAP
ENDCHAR
STARTCHAR 00A1
ENCODING 161
SWIDTH 20740 0
DWIDTH 1037 0
BBX 0 0 0 0
BITMAP
ENDCHAR
STARTCHAR 00A2
ENCODING 162
SWIDTH 20740 0
DWIDTH 1037 0
BBX 0 0 0 0
BITMAP
ENDCHAR
STARTCHAR 00A3
ENCODING 163
SWIDTH 20740 0
DWIDTH 1037 0
BBX 0 0 0 0
BITMAP
ENDCHAR
STARTCHAR 00A4
ENCODING 164
SWIDTH 20740 0
DWIDTH 1037 0
BBX 0 0 0 0
BITMAP
ENDCHAR
STARTCHAR 00A5
ENCODING 165
SWIDTH 20740 0
DWIDTH 1037 0
BBX 0 0 0 0
BITMAP
ENDCHAR
STARTCHAR 00A6
ENCODING 166
SWIDTH 20740 0
DWIDTH 1037 0
BBX 0 0 0 0
BITMAP
ENDCHAR
STARTCHAR 00A7
ENCODING 167
SWIDTH 20740 0
DWIDTH 1037 0
BBX 0 0 0 0
BITMAP
ENDCHAR
STARTCHAR 00A8
ENCODING 168
SWIDTH 20740 0
DWIDTH 1037 0
BBX 0 0 0 0
BITMAP
ENDCHAR
STARTCHAR 00A9
ENCODING 169
SWIDTH 20740 0
DWIDTH 1037 0
BBX 0 0 0 0
BITMAP
ENDCHAR
STARTCHAR 00AA
ENCODING 170
SWIDTH 20740 0
DWIDTH 1037 0
BBX 0 0 0 0
BITMAP
ENDCHAR
STARTCHAR 00AB
ENCODING 171
SWIDTH 20740 0
DWIDTH 1037 0
BBX 0 0 0 0
BITMAP
ENDCHAR
STARTCHAR 00AC
ENCODING 172
SWIDTH 20740 0
DWIDTH 1037 0
BBX 0 0 0 0
BITMAP
ENDCHAR
STARTCHAR 00AD
ENCODING 173
SWIDTH 20740 0
DWIDTH 1037 0
BBX 0 0 0 0
BITMAP
ENDCHAR
STARTCHAR 00AE
ENCODING 174
SWIDTH 20740 0
DWIDTH 1037 0
BBX 0 0 0 0
BITMAP
ENDCHAR
STARTCHAR 00AF
ENCODING 175
SWIDTH 20740 0
DWIDTH 1037 0
BBX 0 0 0 0
BITMAP
ENDCHAR
STARTCHAR 00B0
ENCODING 176
SWIDTH 20740 0
DWIDTH 1037 0
BBX 0 0 0 0
BITMAP
ENDCHAR
STARTCHAR 00B1
ENCODING 177
SWIDTH 20740 0
DWIDTH 1037 0
BBX 0 0 0 0
BITMAP
ENDCHAR
STARTCHAR 00B2
ENCODING 178
SWIDTH 20740 0
DWIDTH 1037 0
BBX 0 0 0 0
BITMAP
ENDCHAR
STARTCHAR 00B3
ENCODING 179
SWIDTH 20740 0
DWIDTH 1037 0
BBX 0 0 0 0
BITMAP
ENDCHAR
STARTCHAR 00B4
ENCODING 180
SWIDTH 20740 0
DWIDTH 1037 0
BBX 0 0 0 0
BITMAP
ENDCHAR
STARTCHAR 00B5
ENCODING 181
SWIDTH 20740 0
DWIDTH 1037 0
BBX 0 0 0 0
BITMAP
ENDCHAR
STARTCHAR 00B6
ENCODING 182
SWIDTH 20740 0
DWIDTH 1037 0
BBX 0 0 0 0
BITMAP
ENDCHAR
STARTCHAR 00B7
ENCODING 183
SWIDTH 20740 0
DWIDTH 1037 0
BBX 0 0 0 0
BITMAP
ENDCHAR
STARTCHAR 00B8
ENCODING 184
SWIDTH 20740 0
DWIDTH 1037 0
BBX 0 0 0 0
BITMAP
ENDCHAR
STARTCHAR 00B9
ENCODING 185
SWIDTH 20740 0
DWIDTH 1037 0
BBX 0 0 0 0
BITMAP
ENDCHAR
STARTCHAR 00BA
ENCODING 186
SWIDTH 20740 0
DWIDTH 1037 0
BBX 0 0 0 0
BITMAP
ENDCHAR
STARTCHAR 00BB
ENCODING 187
SWIDTH 20740 0
DWIDTH 1037 0
BBX 0 0 0 0
BITMAP
ENDCHAR
STARTCHAR 00BC
ENCODING 188
SWIDTH 20740 0
DWIDTH 1037 0
BBX 0 0 0 0
BITMAP
ENDCHAR
STARTCHAR 00BD
ENCODING 189
SWIDTH 20740 0
DWIDTH 1037 0
BBX 0 0 0 0
BITMAP
ENDCHAR
STARTCHAR 00BE
ENCODING 190
SWIDTH 20740 0
DWIDTH 1037 0
BBX 0 0 0 0
BITMAP
ENDCHAR
STARTCHAR 00BF
ENCODING 191
SWIDTH 20740 0
DWIDTH 1037 0
BBX 0 0 0 0
BITMAP
ENDCHAR
STARTCHAR 00C0
ENCODING 192
SWIDTH 20740 0
DWIDTH 1037 0
BBX 0 0 0 0
BITMAP
ENDCHAR
STARTCHAR 00C1
ENCODING 193
SWIDTH 20740 0
DWIDTH 1037 0
BBX 0 0 0 0
BITMAP
ENDCHAR
STARTCHAR 00C2
ENCODING 194
SWIDTH 20740 0
DWIDTH 1037 0
BBX 0 0 0 0
BITMAP
ENDCHAR
STARTCHAR 00C3
ENCODING 195
SWIDTH 20740 0
DWIDTH 1037 0
BBX 0 0 0 0
BITMAP
ENDCHAR
STARTCHAR 00C4
ENCODING 196
SWIDTH 20740 0
DWIDTH 1037 0
BBX 0 0 0 0
BITMAP
ENDCHAR
STARTCHAR 00C5
ENCODING 197
SWIDTH 20740 0
DWIDTH 1037 0
BBX 0 0 0 0
BITMAP
ENDCHAR
STARTCHAR 00C6
ENCODING 198
SWIDTH 20740 0
DWIDTH 1037 0
BBX 0 0 0 0
BITMAP
ENDCHAR
STARTCHAR 00C7
ENCODING 199
SWIDTH 20740 0
DWIDTH 1037 0
BBX 0 0 0 0
BITMAP
ENDCHAR
STARTCHAR 00C8
ENCODING 200
SWIDTH 20740 0
DWIDTH 1037 0
BBX 0 0 0 0
BITMAP
ENDCHAR
STARTCHAR 00C9
ENCODING 201
SWIDTH 20740 0
DWIDTH 1037 0
BBX 0 0 0 0
BITMAP
ENDCHAR
STARTCHAR 00CA
ENCODING 202
SWIDTH 20740 0
DWIDTH 1037 0
BBX 0 0 0 0
BITMAP
ENDCHAR
STARTCHAR 00CB
ENCODING 203
SWIDTH 20740 0
DWIDTH 1037 0
BBX 0 0 0 0
BITMAP
ENDCHAR
STARTCHAR 00CC
ENCODING 204
SWIDTH 20740 0
DWIDTH 1037 0
BBX 0 0 0 0
BITMAP
ENDCHAR
STARTCHAR 00CD
ENCODING 205
SWIDTH 20740 0
DWIDTH 1037 0
BBX 0 0 0 0
BITMAP
ENDCHAR
STARTCHAR 00CE
ENCODING 206
SWIDTH 20740 0
DWIDTH 1037 0
BBX 0 0 0 0
BITMAP
ENDCHAR
STARTCHAR 00CF
ENCODING 207
SWIDTH 20740 0
DWIDTH 1037 0
BBX 0 0 0 0
BITMAP
ENDCHAR
STARTCHAR 00D0
ENCODING 208
SWIDTH 20740 0
DWIDTH 1037 0
BBX 0 0 0 0
BITMAP
ENDCHAR
STARTCHAR 00D1
ENCODING 209
SWIDTH 20740 0
DWIDTH 1037 0
BBX 0 0 0 0
BITMAP
ENDCHAR
STARTCHAR 00D2
ENCODING 210
SWIDTH 20740 0
DWIDTH 1037 0
BBX 0 0 0 0
BITMAP
ENDCHAR
STARTCHAR 00D3
ENCODING 211
SWIDTH 20740 0
DWIDTH 1037 0
BBX 0 0 0 0
BITMAP
ENDCHAR
STARTCHAR 00D4
ENCODING 212
SWIDTH 20740 0
DWIDTH 1037 0
BBX 0 0 0 0
BITMAP
ENDCHAR
STARTCHAR 00D5
ENCODING 213
SWIDTH 20740 0
DWIDTH 1037 0
BBX 0 0 0 0
BITMAP
ENDCHAR
STARTCHAR 00D6
ENCODING 214
SWIDTH 20740 0
DWIDTH 1037 0
BBX 0 0 0 0
BITMAP
ENDCHAR
STARTCHAR 00D7
ENCODING 215
SWIDTH 20740 0
DWIDTH 1037 0
BBX 0 0 0 0
BITMAP
ENDCHAR
STARTCHAR 00D8
ENCODING 216
SWIDTH 20740 0
DWIDTH 1037 0
BBX 0 0 0 0
BITMAP
ENDCHAR
STARTCHAR 00D9
ENCODING 217
SWIDTH 20740 0
DWIDTH 1037 0
BBX 0 0 0 0
BITMAP
ENDCHAR
STARTCHAR 00DA
ENCODING 218
SWIDTH 20740 0
DWIDTH 1037 0
BBX 0 0 0 0
BITMAP
ENDCHAR
STARTCHAR 00DB
ENCODING 219
SWIDTH 20740 0
DWIDTH 1037 0
BBX 0 0 0 0
BITMAP
ENDCHAR
STARTCHAR 00DC
ENCODING 220
SWIDTH 20740 0
DWIDTH 1037 0
BBX 0 0 0 0
BITMAP
ENDCHAR
STARTCHAR 00DD
ENCODING 221
SWIDTH 20740 0
DWIDTH 1037 0
BBX 0 0 0 0
BITMAP
ENDCHAR
STARTCHAR 00DE
ENCODING 222
SWIDTH 20740 0
DWIDTH 1037 0
BBX 0 0 0 0
BITMAP
ENDCHAR
STARTCHAR 00DF
ENCODING 223
SWIDTH 20740 0
DWIDTH 1037 0
BBX 0 0 0 0
BITMAP
ENDCHAR
STARTCHAR 00E0
ENCODING 224
SWIDTH 20740 0
DWIDTH 1037 0
BBX 0 0 0 0
BITMAP
ENDCHAR
STARTCHAR 00E1
ENCODING 225
SWIDTH 20740 0
DWIDTH 1037 0
BBX 0 0 0 0
BITMAP
ENDCHAR
STARTCHAR 00E2
ENCODING 226
SWIDTH 20740 0
DWIDTH 1037 0
BBX 0 0 0 0
BITMAP
ENDCHAR
STARTCHAR 00E3
ENCODING 227
SWIDTH 20740 0
DWIDTH 1037 0
BBX 0 0 0 0
BITMAP
ENDCHAR
STARTCHAR 00E4
ENCODING 228
SWIDTH 20740 0
DWIDTH 1037 0
BBX 0 0 0 0
BITMAP
ENDCHAR
STARTCHAR 00E5
ENCODING 229
SWIDTH 20740 0
DWIDTH 1037 0
BBX 0 0 0 0
BITMAP
ENDCHAR
STARTCHAR 00E6
ENCODING 230
SWIDTH 20740 0
DWIDTH 1037 0
BBX 0 0 0 0
BITMAP
ENDCHAR
STARTCHAR 00E7
ENCODING 231
SWIDTH 20740 0
DWIDTH 1037 0
BBX 0 0 0 0
BITMAP
ENDCHAR
STARTCHAR 00E8
ENCODING 232
SWIDTH 20740 0
DWIDTH 1037 0
BBX 0 0 0 0
BITMAP
ENDCHAR
STARTCHAR 00E9
ENCODING 233
SWIDTH 20740 0
DWIDTH 1037 0
BBX 0 0 0 0
BITMAP
ENDCHAR
STARTCHAR 00EA
ENCODING 234
SWIDTH 20740 0
DWIDTH 1037 0
BBX 0 0 0 0
BITMAP
ENDCHAR
STARTCHAR 00EB
ENCODING 235
SWIDTH 20740 0
DWIDTH 1037 0
BBX 0 0 0 0
BITMAP
ENDCHAR
STARTCHAR 00EC
ENCODING 236
SWIDTH 20740 0
DWIDTH 1037 0
BBX 0 0 0 0
BITMAP
ENDCHAR
STARTCHAR 00ED
ENCODING 237
SWIDTH 20740 0
DWIDTH 1037 0
BBX 0 0 0 0
BITMAP
ENDCHAR
STARTCHAR 00EE
ENCODING 238
SWIDTH 20740 0
DWIDTH 1037 0
BBX 0 0 0 0
BITMAP
ENDCHAR
STARTCHAR 00EF
ENCODING 239
SWIDTH 20740 0
DWIDTH 1037 0
BBX 0 0 0 0
BITMAP
ENDCHAR
STARTCHAR 00F0
ENCODING 240
SWIDTH 20740 0
DWIDTH 1037 0
BBX 0 0 0 0
BITMAP
ENDCHAR
STARTCHAR 00F1
ENCODING 241
SWIDTH 20740 0
DWIDTH 1037 0
BBX 0 0 0 0
BITMAP
ENDCHAR
STARTCHAR 00F2
ENCODING 242
SWIDTH 20740 0
DWIDTH 1037 0
BBX 0 0 0 0
BITMAP
ENDCHAR
STARTCHAR 00F3
ENCODING 243
SWIDTH 20740 0
DWIDTH 1037 0
BBX 0 0 0 0
BITMAP
ENDCHAR
STARTCHAR 00F4
ENCODING 244
SWIDTH 20740 0
DWIDTH 1037 0
BBX 0 0 0 0
BITMAP
ENDCHAR
STARTCHAR 00F5
ENCODING 245
SWIDTH 20740 0
DWIDTH 1037 0
BBX 0 0 0 0
BITMAP
ENDCHAR
STARTCHAR 00F6
ENCODING 246
SWIDTH 20740 0
DWIDTH 1037 0
BBX 0 0 0 0
BITMAP
ENDCHAR
STARTCHAR 00F7
ENCODING 247
SWIDTH 20740 0
DWIDTH 1037 0
BBX 0 0 0 0
BITMAP
ENDCHAR
STARTCHAR 00F8
ENCODING 248
SWIDTH 20740 0
DWIDTH 1037 0
BBX 0 0 0 0
BITMAP
ENDCHAR
STARTCHAR 00F9
ENCODING 249
SWIDTH 20740 0
DWIDTH 1037 0
BBX 0 0 0 0
BITMAP
ENDCHAR
STARTCHAR 00FA
ENCODING 250
SWIDTH 20740 0
DWIDTH 1037 0
BBX 0 0 0 0
BITMAP
ENDCHAR
STARTCHAR 00FB
ENCODING 251
SWIDTH 20740 0
DWIDTH 1037 0
BBX 0 0 0 0
BITMAP
ENDCHAR
STARTCHAR 00FC
ENCODING 252
SWIDTH 20740 0
DWIDTH 1037 0
BBX 0 0 0 0
BITMAP
ENDCHAR
STARTCHAR 00FD
ENCODING 253
SWIDTH 20740 0
DWIDTH 1037 0
BBX 0 0 0 0
BITMAP
ENDCHAR
STARTCHAR 00FE
ENCODING 254
SWIDTH 20740 0
DWIDTH 1037 0
BBX 0 0 0 0
BITMAP
ENDCHAR
STARTCHAR 00FF
ENCODING 255
SWIDTH 20740 0
DWIDTH 1037 0
BBX 0 0 0 0
BITMAP
ENDCHAR
STARTCHAR 0102
ENCODING 258
SWIDTH 20740 0
DWIDTH 1037 0
BBX 0 0 0 0
BITMAP
ENDCHAR
STARTCHAR 0103
ENCODING 259
SWIDTH 20740 0
DWIDTH 1037 0
BBX 0 0 0 0
BITMAP
ENDCHAR
STARTCHAR 0104
ENCODING 260
SWIDTH 20740 0
DWIDTH 1037 0
BBX 0 0 0 0
BITMAP
ENDCHAR
STARTCHAR 0105
ENCODING 261
SWIDTH 20740 0
DWIDTH 1037 0
BBX 0 0 0 0
BITMAP
ENDCHAR
STARTCHAR 0106
ENCODING 262
SWIDTH 20740 0
DWIDTH 1037 0
BBX 0 0 0 0
BITMAP
ENDCHAR
STARTCHAR 0107
ENCODING 263
SWIDTH 20740 0
DWIDTH 1037 0
BBX 0 0 0 0
BITMAP
ENDCHAR
STARTCHAR 010C
ENCODING 268
SWIDTH 20740 0
DWIDTH 1037 0
BBX 0 0 0 0
BITMAP
ENDCHAR
STARTCHAR 010D
ENCODING 269
SWIDTH 20740 0
DWIDTH 1037 0
BBX 0 0 0 0
BITMAP
ENDCHAR
STARTCHAR 010E
ENCODING 270
SWIDTH 20740 0
DWIDTH 1037 0
BBX 0 0 0 0
BITMAP
ENDCHAR
STARTCHAR 010F
ENCODING 271
SWIDTH 20740 0
DWIDTH 1037 0
BBX 0 0 0 0
BITMAP
ENDCHAR
STARTCHAR 0110
ENCODING 272
SWIDTH 20740 0
DWIDTH 1037 0
BBX 0 0 0 0
BITMAP
ENDCHAR
STARTCHAR 0111
ENCODING 273
SWIDTH 20740 0
DWIDTH 1037 0
BBX 0 0 0 0
BITMAP
ENDCHAR
STARTCHAR 0118
ENCODING 280
SWIDTH 20740 0
DWIDTH 1037 0
BBX 0 0 0 0
BITMAP
ENDCHAR
STARTCHAR 0119
ENCODING 281
SWIDTH 20740 0
DWIDTH 1037 0
BBX 0 0 0 0
BITMAP
ENDCHAR
STARTCHAR 011A
ENCODING 282
SWIDTH 20740 0
DWIDTH 1037 0
BBX 0 0 0 0
BITMAP
ENDCHAR
STARTCHAR 011B
ENCODING 283
SWIDTH 20740 0
DWIDTH 1037 0
BBX 0 0 0 0
BITMAP
ENDCHAR
STARTCHAR 011E
ENCODING 286
SWIDTH 20740 0
DWIDTH 1037 0
BBX 0 0 0 0
BITMAP
ENDCHAR
STARTCHAR 011F
ENCODING 287
SWIDTH 20740 0
DWIDTH 1037 0
BBX 0 0 0 0
BITMAP
ENDCHAR
STARTCHAR 0130
ENCODING 304
SWIDTH 20740 0
DWIDTH 1037 0
BBX 0 0 0 0
BITMAP
ENDCHAR
STARTCHAR 0131
ENCODING 305
SWIDTH 20740 0
DWIDTH 1037 0
BBX 0 0 0 0
BITMAP
ENDCHAR
STARTCHAR 0139
ENCODING 313
SWIDTH 20740 0
DWIDTH 1037 0
BBX 0 0 0 0
BITMAP
ENDCHAR
STARTCHAR 013A
ENCODING 314
SWIDTH 20740 0
DWIDTH 1037 0
BBX 0 0 0 0
BITMAP
ENDCHAR
STARTCHAR 013D
ENCODING 317
SWIDTH 20740 0
DWIDTH 1037 0
BBX 0 0 0 0
BITMAP
ENDCHAR
STARTCHAR 013E
ENCODING 318
SWIDTH 20740 0
DWIDTH 1037 0
BBX 0 0 0 0
BITMAP
ENDCHAR
STARTCHAR 013F
ENCODING 319
SWIDTH 20740 0
DWIDTH 1037 0
BBX 0 0 0 0
BITMAP
ENDCHAR
STARTCHAR 0140
ENCODING 320
SWIDTH 20740 0
DWIDTH 1037 0
BBX 0 0 0 0
BITMAP
ENDCHAR
STARTCHAR 0141
ENCODING 321
SWIDTH 20740 0
DWIDTH 1037 0
BBX 0 0 0 0
BITMAP
ENDCHAR
STARTCHAR 0142
ENCODING 322
SWIDTH 20740 0
DWIDTH 1037 0
BBX 0 0 0 0
BITMAP
ENDCHAR
STARTCHAR 0143
ENCODING 323
SWIDTH 20740 0
DWIDTH 1037 0
BBX 0 0 0 0
BITMAP
ENDCHAR
STARTCHAR 0144
ENCODING 324
SWIDTH 20740 0
DWIDTH 1037 0
BBX 0 0 0 0
BITMAP
ENDCHAR
STARTCHAR 0147
ENCODING 327
SWIDTH 20740 0
DWIDTH 1037 0
BBX 0 0 0 0
BITMAP
ENDCHAR
STARTCHAR 0148
ENCODING 328
SWIDTH 20740 0
DWIDTH 1037 0
BBX 0 0 0 0
BITMAP
ENDCHAR
STARTCHAR 0150
ENCODING 336
SWIDTH 20740 0
DWIDTH 1037 0
BBX 0 0 0 0
BITMAP
ENDCHAR
STARTCHAR 0151
ENCODING 337
SWIDTH 20740 0
DWIDTH 1037 0
BBX 0 0 0 0
BITMAP
ENDCHAR
STARTCHAR 0152
ENCODING 338
SWIDTH 20740 0
DWIDTH 1037 0
BBX 0 0 0 0
BITMAP
ENDCHAR
STARTCHAR 0153
ENCODING 339
SWIDTH 20740 0
DWIDTH 1037 0
BBX 0 0 0 0
BITMAP
ENDCHAR
STARTCHAR 0154
ENCODING 340
SWIDTH 20740 0
DWIDTH 1037 0
BBX 0 0 0 0
BITMAP
ENDCHAR
STARTCHAR 0155
ENCODING 341
SWIDTH 20740 0
DWIDTH 1037 0
BBX 0 0 0 0
BITMAP
ENDCHAR
STARTCHAR 0158
ENCODING 344
SWIDTH 20740 0
DWIDTH 1037 0
BBX 0 0 0 0
BITMAP
ENDCHAR
STARTCHAR 0159
ENCODING 345
SWIDTH 20740 0
DWIDTH 1037 0
BBX 0 0 0 0
BITMAP
ENDCHAR
STARTCHAR 015A
ENCODING 346
SWIDTH 20740 0
DWIDTH 1037 0
BBX 0 0 0 0
BITMAP
ENDCHAR
STARTCHAR 015B
ENCODING 347
SWIDTH 20740 0
DWIDTH 1037 0
BBX 0 0 0 0
BITMAP
ENDCHAR
STARTCHAR 015E
ENCODING 350
SWIDTH 20740 0
DWIDTH 1037 0
BBX 0 0 0 0
BITMAP
ENDCHAR
STARTCHAR 015F
ENCODING 351
SWIDTH 20740 0
DWIDTH 1037 0
BBX 0 0 0 0
BITMAP
ENDCHAR
STARTCHAR 0160
ENCODING 352
SWIDTH 20740 0
DWIDTH 1037 0
BBX 0 0 0 0
BITMAP
ENDCHAR
STARTCHAR 0161
ENCODING 353
SWIDTH 20740 0
DWIDTH 1037 0
BBX 0 0 0 0
BITMAP
ENDCHAR
STARTCHAR 0162
ENCODING 354
SWIDTH 20740 0
DWIDTH 1037 0
BBX 0 0 0 0
BITMAP
ENDCHAR
STARTCHAR 0163
ENCODING 355
SWIDTH 20740 0
DWIDTH 1037 0
BBX 0 0 0 0
BITMAP
ENDCHAR
STARTCHAR 0164
ENCODING 356
SWIDTH 20740 0
DWIDTH 1037 0
BBX 0 0 0 0
BITMAP
ENDCHAR
STARTCHAR 0165
ENCODING 357
SWIDTH 20740 0
DWIDTH 1037 0
BBX 0 0 0 0
BITMAP
ENDCHAR
STARTCHAR 016E
ENCODING 366
SWIDTH 20740 0
DWIDTH 1037 0
BBX 0 0 0 0
BITMAP
ENDCHAR
STARTCHAR 016F
ENCODING 367
SWIDTH 20740 0
DWIDTH 1037 0
BBX 0 0 0 0
BITMAP
ENDCHAR
STARTCHAR 0170
ENCODING 368
SWIDTH 20740 0
DWIDTH 1037 0
BBX 0 0 0 0
BITMAP
ENDCHAR
STARTCHAR 0171
ENCODING 369
SWIDTH 20740 0
DWIDTH 1037 0
BBX 0 0 0 0
BITMAP
ENDCHAR
STARTCHAR 0178
ENCODING 376
SWIDTH 20740 0
DWIDTH 1037 0
BBX 0 0 0 0
BITMAP
ENDCHAR
STARTCHAR 0179
ENCODING 377
SWIDTH 20740 0
DWIDTH 1037 0
BBX 0 0 0 0
BITMAP
ENDCHAR
STARTCHAR 017A
ENCODING 378
SWIDTH 20740 0
DWIDTH 1037 0
BBX 0 0 0 0
BITMAP
ENDCHAR
STARTCHAR 017B
ENCODING 379
SWIDTH 20740 0
DWIDTH 1037 0
BBX 0 0 0 0
BITMAP
ENDCHAR
STARTCHAR 017C
ENCODING 380
SWIDTH 20740 0
DWIDTH 1037 0
BBX 0 0 0 0
BITMAP
ENDCHAR
STARTCHAR 017D
ENCODING 381
SWIDTH 20740 0
DWIDTH 1037 0
BBX 0 0 0 0
BITMAP
ENDCHAR
STARTCHAR 017E
ENCODING 382
SWIDTH 20740 0
DWIDTH 1037 0
BBX 0 0 0 0
BITMAP
ENDCHAR
STARTCHAR 0192
ENCODING 402
SWIDTH 20740 0
DWIDTH 1037 0
BBX 0 0 0 0
BITMAP
ENDCHAR
STARTCHAR 02BA
ENCODING 698
SWIDTH 20740 0
DWIDTH 1037 0
BBX 0 0 0 0
BITMAP
ENDCHAR
STARTCHAR 02C6
ENCODING 710
SWIDTH 20740 0
DWIDTH 1037 0
BBX 0 0 0 0
BITMAP
ENDCHAR
STARTCHAR 02C7
ENCODING 711
SWIDTH 20740 0
DWIDTH 1037 0
BBX 0 0 0 0
BITMAP
ENDCHAR
STARTCHAR 02C9
ENCODING 713
SWIDTH 20740 0
DWIDTH 1037 0
BBX 0 0 0 0
BITMAP
ENDCHAR
STARTCHAR 02D8
ENCODING 728
SWIDTH 20740 0
DWIDTH 1037 0
BBX 0 0 0 0
BITMAP
ENDCHAR
STARTCHAR 02D9
ENCODING 729
SWIDTH 20740 0
DWIDTH 1037 0
BBX 0 0 0 0
BITMAP
ENDCHAR
STARTCHAR 02DA
ENCODING 730
SWIDTH 20740 0
DWIDTH 1037 0
BBX 0 0 0 0
BITMAP
ENDCHAR
STARTCHAR 02DB
ENCODING 731
SWIDTH 20740 0
DWIDTH 1037 0
BBX 0 0 0 0
BITMAP
ENDCHAR
STARTCHAR 02DC
ENCODING 732
SWIDTH 20740 0
DWIDTH 1037 0
BBX 0 0 0 0
BITMAP
ENDCHAR
STARTCHAR 0393
ENCODING 915
SWIDTH 20740 0
DWIDTH 1037 0
BBX 0 0 0 0
BITMAP
ENDCHAR
STARTCHAR 0398
ENCODING 920
SWIDTH 20740 0
DWIDTH 1037 0
BBX 0 0 0 0
BITMAP
ENDCHAR
STARTCHAR 03A3
ENCODING 931
SWIDTH 20740 0
DWIDTH 1037 0
BBX 0 0 0 0
BITMAP
ENDCHAR
STARTCHAR 03A6
ENCODING 934
SWIDTH 20740 0
DWIDTH 1037 0
BBX 0 0 0 0
BITMAP
ENDCHAR
STARTCHAR 03A9
ENCODING 937
SWIDTH 20740 0
DWIDTH 1037 0
BBX 0 0 0 0
BITMAP
ENDCHAR
STARTCHAR 03B1
ENCODING 945
SWIDTH 20740 0
DWIDTH 1037 0
BBX 0 0 0 0
BITMAP
ENDCHAR
STARTCHAR 03B4
ENCODING 948
SWIDTH 20740 0
DWIDTH 1037 0
BBX 0 0 0 0
BITMAP
ENDCHAR
STARTCHAR 03B5
ENCODING 949
SWIDTH 20740 0
DWIDTH 1037 0
BBX 0 0 0 0
BITMAP
ENDCHAR
STARTCHAR 03C0
ENCODING 960
SWIDTH 20740 0
DWIDTH 1037 0
BBX 0 0 0 0
BITMAP
ENDCHAR
STARTCHAR 03C3
ENCODING 963
SWIDTH 20740 0
DWIDTH 1037 0
BBX 0 0 0 0
BITMAP
ENDCHAR
STARTCHAR 03C4
ENCODING 964
SWIDTH 20740 0
DWIDTH 1037 0
BBX 0 0 0 0
BITMAP
ENDCHAR
STARTCHAR 03C6
ENCODING 966
SWIDTH 20740 0
DWIDTH 1037 0
BBX 0 0 0 0
BITMAP
ENDCHAR
STARTCHAR 2013
ENCODING 8211
SWIDTH 20740 0
DWIDTH 1037 0
BBX 0 0 0 0
BITMAP
ENDCHAR
STARTCHAR 2014
ENCODING 8212
SWIDTH 20740 0
DWIDTH 1037 0
BBX 0 0 0 0
BITMAP
ENDCHAR
STARTCHAR 2017
ENCODING 8215
SWIDTH 20740 0
DWIDTH 1037 0
BBX 0 0 0 0
BITMAP
ENDCHAR
STARTCHAR 2018
ENCODING 8216
SWIDTH 20740 0
DWIDTH 1037 0
BBX 0 0 0 0
BITMAP
ENDCHAR
STARTCHAR 2019
ENCODING 8217
SWIDTH 20740 0
DWIDTH 1037 0
BBX 0 0 0 0
BITMAP
ENDCHAR
STARTCHAR 201A
ENCODING 8218
SWIDTH 20740 0
DWIDTH 1037 0
BBX 0 0 0 0
BITMAP
ENDCHAR
STARTCHAR 201C
ENCODING 8220
SWIDTH 20740 0
DWIDTH 1037 0
BBX 0 0 0 0
BITMAP
ENDCHAR
STARTCHAR 201D
ENCODING 8221
SWIDTH 20740 0
DWIDTH 1037 0
BBX 0 0 0 0
BITMAP
ENDCHAR
STARTCHAR 201E
ENCODING 8222
SWIDTH 20740 0
DWIDTH 1037 0
BBX 0 0 0 0
BITMAP
ENDCHAR
STARTCHAR 2020
ENCODING 8224
SWIDTH 20740 0
DWIDTH 1037 0
BBX 0 0 0 0
BITMAP
ENDCHAR
STARTCHAR 2021
ENCODING 8225
SWIDTH 20740 0
DWIDTH 1037 0
BBX 0 0 0 0
BITMAP
ENDCHAR
STARTCHAR 2022
ENCODING 8226
SWIDTH 20740 0
DWIDTH 1037 0
BBX 0 0 0 0
BITMAP
ENDCHAR
STARTCHAR 2026
ENCODING 8230
SWIDTH 20740 0
DWIDTH 1037 0
BBX 0 0 0 0
BITMAP
ENDCHAR
STARTCHAR 2030
ENCODING 8240
SWIDTH 20740 0
DWIDTH 1037 0
BBX 0 0 0 0
BITMAP
ENDCHAR
STARTCHAR 2039
ENCODING 8249
SWIDTH 20740 0
DWIDTH 1037 0
BBX 0 0 0 0
BITMAP
ENDCHAR
STARTCHAR 203A
ENCODING 8250
SWIDTH 20740 0
DWIDTH 1037 0
BBX 0 0 0 0
BITMAP
ENDCHAR
STARTCHAR 203C
ENCODING 8252
SWIDTH 20740 0
DWIDTH 1037 0
BBX 0 0 0 0
BITMAP
ENDCHAR
STARTCHAR 207F
ENCODING 8319
SWIDTH 20740 0
DWIDTH 1037 0
BBX 0 0 0 0
BITMAP
ENDCHAR
STARTCHAR 20A3
ENCODING 8355
SWIDTH 20740 0
DWIDTH 1037 0
BBX 0 0 0 0
BITMAP
ENDCHAR
STARTCHAR 20A7
ENCODING 8359
SWIDTH 20740 0
DWIDTH 1037 0
BBX 0 0 0 0
BITMAP
ENDCHAR
STARTCHAR 2122
ENCODING 8482
SWIDTH 20740 0
DWIDTH 1037 0
BBX 0 0 0 0
BITMAP
ENDCHAR
STARTCHAR 2190
ENCODING 8592
SWIDTH 20740 0
DWIDTH 1037 0
BBX 0 0 0 0
BITMAP
ENDCHAR
STARTCHAR 2191
ENCODING 8593
SWIDTH 20740 0
DWIDTH 1037 0
BBX 0 0 0 0
BITMAP
ENDCHAR
STARTCHAR 2192
ENCODING 8594
SWIDTH 20740 0
DWIDTH 1037 0
BBX 0 0 0 0
BITMAP
ENDCHAR
STARTCHAR 2193
ENCODING 8595
SWIDTH 20740 0
DWIDTH 1037 0
BBX 0 0 0 0
BITMAP
ENDCHAR
STARTCHAR 2194
ENCODING 8596
SWIDTH 20740 0
DWIDTH 1037 0
BBX 0 0 0 0
BITMAP
ENDCHAR
STARTCHAR 2195
ENCODING 8597
SWIDTH 20740 0
DWIDTH 1037 0
BBX 0 0 0 0
BITMAP
ENDCHAR
STARTCHAR 21A8
ENCODING 8616
SWIDTH 20740 0
DWIDTH 1037 0
BBX 0 0 0 0
BITMAP
ENDCHAR
STARTCHAR 2202
ENCODING 8706
SWIDTH 20740 0
DWIDTH 1037 0
BBX 0 0 0 0
BITMAP
ENDCHAR
STARTCHAR 2206
ENCODING 8710
SWIDTH 20740 0
DWIDTH 1037 0
BBX 0 0 0 0
BITMAP
ENDCHAR
STARTCHAR 220F
ENCODING 8719
SWIDTH 20740 0
DWIDTH 1037 0
BBX 0 0 0 0
BITMAP
ENDCHAR
STARTCHAR 2212
ENCODING 8722
SWIDTH 20740 0
DWIDTH 1037 0
BBX 0 0 0 0
BITMAP
ENDCHAR
STARTCHAR 2215
ENCODING 8725
SWIDTH 20740 0
DWIDTH 1037 0
BBX 0 0 0 0
BITMAP
ENDCHAR
STARTCHAR 2219
ENCODING 8729
SWIDTH 20740 0
DWIDTH 1037 0
BBX 0 0 0 0
BITMAP
ENDCHAR
STARTCHAR 221A
ENCODING 8730
SWIDTH 20740 0
DWIDTH 1037 0
BBX 0 0 0 0
BITMAP
ENDCHAR
STARTCHAR 221E
ENCODING 8734
SWIDTH 20740 0
DWIDTH 1037 0
BBX 0 0 0 0
BITMAP
ENDCHAR
STARTCHAR 221F
ENCODING 8735
SWIDTH 20740 0
DWIDTH 1037 0
BBX 0 0 0 0
BITMAP
ENDCHAR
STARTCHAR 2229
ENCODING 8745
SWIDTH 20740 0
DWIDTH 1037 0
BBX 0 0 0 0
BITMAP
ENDCHAR
STARTCHAR 222B
ENCODING 8747
SWIDTH 20740 0
DWIDTH 1037 0
BBX 0 0 0 0
BITMAP
ENDCHAR
STARTCHAR 2248
ENCODING 8776
SWIDTH 20740 0
DWIDTH 1037 0
BBX 0 0 0 0
BITMAP
ENDCHAR
STARTCHAR 2260
ENCODING 8800
SWIDTH 20740 0
DWIDTH 1037 0
BBX 0 0 0 0
BITMAP
ENDCHAR
STARTCHAR 2261
ENCODING 8801
SWIDTH 20740 0
DWIDTH 1037 0
BBX 0 0 0 0
BITMAP
ENDCHAR
STARTCHAR 2264
ENCODING 8804
SWIDTH 20740 0
DWIDTH 1037 0
BBX 0 0 0 0
BITMAP
ENDCHAR
STARTCHAR 2265
ENCODING 8805
SWIDTH 20740 0
DWIDTH 1037 0
BBX 0 0 0 0
BITMAP
ENDCHAR
STARTCHAR 2302
ENCODING 8962
SWIDTH 20740 0
DWIDTH 1037 0
BBX 0 0 0 0
BITMAP
ENDCHAR
STARTCHAR 2310
ENCODING 8976
SWIDTH 20740 0
DWIDTH 1037 0
BBX 0 0 0 0
BITMAP
ENDCHAR
STARTCHAR 2320
ENCODING 8992
SWIDTH 20740 0
DWIDTH 1037 0
BBX 0 0 0 0
BITMAP
ENDCHAR
STARTCHAR 2321
ENCODING 8993
SWIDTH 20740 0
DWIDTH 1037 0
BBX 0 0 0 0
BITMAP
ENDCHAR
STARTCHAR 2500
ENCODING 9472
SWIDTH 20740 0
DWIDTH 1037 0
BBX 0 0 0 0
BITMAP
ENDCHAR
STARTCHAR 2502
ENCODING 9474
SWIDTH 20740 0
DWIDTH 1037 0
BBX 0 0 0 0
BITMAP
ENDCHAR
STARTCHAR 250C
ENCODING 9484
SWIDTH 20740 0
DWIDTH 1037 0
BBX 0 0 0 0
BITMAP
ENDCHAR
STARTCHAR 2510
ENCODING 9488
SWIDTH 20740 0
DWIDTH 1037 0
BBX 0 0 0 0
BITMAP
ENDCHAR
STARTCHAR 2514
ENCODING 9492
SWIDTH 20740 0
DWIDTH 1037 0
BBX 0 0 0 0
BITMAP
ENDCHAR
STARTCHAR 2518
ENCODING 9496
SWIDTH 20740 0
DWIDTH 1037 0
BBX 0 0 0 0
BITMAP
ENDCHAR
STARTCHAR 251C
ENCODING 9500
SWIDTH 20740 0
DWIDTH 1037 0
BBX 0 0 0 0
BITMAP
ENDCHAR
STARTCHAR 2524
ENCODING 9508
SWIDTH 20740 0
DWIDTH 1037 0
BBX 0 0 0 0
BITMAP
ENDCHAR
STARTCHAR 252C
ENCODING 9516
SWIDTH 20740 0
DWIDTH 1037 0
BBX 0 0 0 0
BITMAP
ENDCHAR
STARTCHAR 2534
ENCODING 9524
SWIDTH 20740 0
DWIDTH 1037 0
BBX 0 0 0 0
BITMAP
ENDCHAR
STARTCHAR 253C
ENCODING 9532
SWIDTH 20740 0
DWIDTH 1037 0
BBX 0 0 0 0
BITMAP
ENDCHAR
STARTCHAR 2550
ENCODING 9552
SWIDTH 20740 0
DWIDTH 1037 0
BBX 0 0 0 0
BITMAP
ENDCHAR
STARTCHAR 2551
ENCODING 9553
SWIDTH 20740 0
DWIDTH 1037 0
BBX 0 0 0 0
BITMAP
ENDCHAR
STARTCHAR 2552
ENCODING 9554
SWIDTH 20740 0
DWIDTH 1037 0
BBX 0 0 0 0
BITMAP
ENDCHAR
STARTCHAR 2553
ENCODING 9555
SWIDTH 20740 0
DWIDTH 1037 0
BBX 0 0 0 0
BITMAP
ENDCHAR
STARTCHAR 2554
ENCODING 9556
SWIDTH 20740 0
DWIDTH 1037 0
BBX 0 0 0 0
BITMAP
ENDCHAR
STARTCHAR 2555
ENCODING 9557
SWIDTH 20740 0
DWIDTH 1037 0
BBX 0 0 0 0
BITMAP
ENDCHAR
STARTCHAR 2556
ENCODING 9558
SWIDTH 20740 0
DWIDTH 1037 0
BBX 0 0 0 0
BITMAP
ENDCHAR
STARTCHAR 2557
ENCODING 9559
SWIDTH 20740 0
DWIDTH 1037 0
BBX 0 0 0 0
BITMAP
ENDCHAR
STARTCHAR 2558
ENCODING 9560
SWIDTH 20740 0
DWIDTH 1037 0
BBX 0 0 0 0
BITMAP
ENDCHAR
STARTCHAR 2559
ENCODING 9561
SWIDTH 20740 0
DWIDTH 1037 0
BBX 0 0 0 0
BITMAP
ENDCHAR
STARTCHAR 255A
ENCODING 9562
SWIDTH 20740 0
DWIDTH 1037 0
BBX 0 0 0 0
BITMAP
ENDCHAR
STARTCHAR 255B
ENCODING 9563
SWIDTH 20740 0
DWIDTH 1037 0
BBX 0 0 0 0
BITMAP
ENDCHAR
STARTCHAR 255C
ENCODING 9564
SWIDTH 20740 0
DWIDTH 1037 0
BBX 0 0 0 0
BITMAP
ENDCHAR
STARTCHAR 255D
ENCODING 9565
SWIDTH 20740 0
DWIDTH 1037 0
BBX 0 0 0 0
BITMAP
ENDCHAR
STARTCHAR 255E
ENCODING 9566
SWIDTH 20740 0
DWIDTH 1037 0
BBX 0 0 0 0
BITMAP
ENDCHAR
STARTCHAR 255F
ENCODING 9567
SWIDTH 20740 0
DWIDTH 1037 0
BBX 0 0 0 0
BITMAP
ENDCHAR
STARTCHAR 2560
ENCODING 9568
SWIDTH 20740 0
DWIDTH 1037 0
BBX 0 0 0 0
BITMAP
ENDCHAR
STARTCHAR 2561
ENCODING 9569
SWIDTH 20740 0
DWIDTH 1037 0
BBX 0 0 0 0
BITMAP
ENDCHAR
STARTCHAR 2562
ENCODING 9570
SWIDTH 20740 0
DWIDTH 1037 0
BBX 0 0 0 0
BITMAP
ENDCHAR
STARTCHAR 2563
ENCODING 9571
SWIDTH 20740 0
DWIDTH 1037 0
BBX 0 0 0 0
BITMAP
ENDCHAR
STARTCHAR 2564
ENCODING 9572
SWIDTH 20740 0
DWIDTH 1037 0
BBX 0 0 0 0
BITMAP
ENDCHAR
STARTCHAR 2565
ENCODING 9573
SWIDTH 20740 0
DWIDTH 1037 0
BBX 0 0 0 0
BITMAP
ENDCHAR
STARTCHAR 2566
ENCODING 9574
SWIDTH 20740 0
DWIDTH 1037 0
BBX 0 0 0 0
BITMAP
ENDCHAR
STARTCHAR 2567
ENCODING 9575
SWIDTH 20740 0
DWIDTH 1037 0
BBX 0 0 0 0
BITMAP
ENDCHAR
STARTCHAR 2568
ENCODING 9576
SWIDTH 20740 0
DWIDTH 1037 0
BBX 0 0 0 0
BITMAP
ENDCHAR
STARTCHAR 2569
ENCODING 9577
SWIDTH 20740 0
DWIDTH 1037 0
BBX 0 0 0 0
BITMAP
ENDCHAR
STARTCHAR 256A
ENCODING 9578
SWIDTH 20740 0
DWIDTH 1037 0
BBX 0 0 0 0
BITMAP
ENDCHAR
STARTCHAR 256B
ENCODING 9579
SWIDTH 20740 0
DWIDTH 1037 0
BBX 0 0 0 0
BITMAP
ENDCHAR
STARTCHAR 256C
ENCODING 9580
SWIDTH 20740 0
DWIDTH 1037 0
BBX 0 0 0 0
BITMAP
ENDCHAR
STARTCHAR 2580
ENCODING 9600
SWIDTH 20740 0
DWIDTH 1037 0
BBX 0 0 0 0
BITMAP
ENDCHAR
STARTCHAR 2584
ENCODING 9604
SWIDTH 20740 0
DWIDTH 1037 0
BBX 0 0 0 0
BITMAP
ENDCHAR
STARTCHAR 2588
ENCODING 9608
SWIDTH 20740 0
DWIDTH 1037 0
BBX 0 0 0 0
BITMAP
ENDCHAR
STARTCHAR 258C
ENCODING 9612
SWIDTH 20740 0
DWIDTH 1037 0
BBX 0 0 0 0
BITMAP
ENDCHAR
STARTCHAR 2590
ENCODING 9616
SWIDTH 20740 0
DWIDTH 1037 0
BBX 0 0 0 0
BITMAP
ENDCHAR
STARTCHAR 2591
ENCODING 9617
SWIDTH 20740 0
DWIDTH 1037 0
BBX 0 0 0 0
BITMAP
ENDCHAR
STARTCHAR 2592
ENCODING 9618
SWIDTH 20740 0
DWIDTH 1037 0
BBX 0 0 0 0
BITMAP
ENDCHAR
STARTCHAR 2593
ENCODING 9619
SWIDTH 20740 0
DWIDTH 1037 0
BBX 0 0 0 0
BITMAP
ENDCHAR
STARTCHAR 25A0
ENCODING 9632
SWIDTH 20740 0
DWIDTH 1037 0
BBX 0 0 0 0
BITMAP
ENDCHAR
STARTCHAR 25AC
ENCODING 9644
SWIDTH 20740 0
DWIDTH 1037 0
BBX 0 0 0 0
BITMAP
ENDCHAR
STARTCHAR 25B2
ENCODING 9650
SWIDTH 20740 0
DWIDTH 1037 0
BBX 0 0 0 0
BITMAP
ENDCHAR
STARTCHAR 25BA
ENCODING 9658
SWIDTH 20740 0
DWIDTH 1037 0
BBX 0 0 0 0
BITMAP
ENDCHAR
STARTCHAR 25BC
ENCODING 9660
SWIDTH 20740 0
DWIDTH 1037 0
BBX 0 0 0 0
BITMAP
ENDCHAR
STARTCHAR 25C4
ENCODING 9668
SWIDTH 20740 0
DWIDTH 1037 0
BBX 0 0 0 0
BITMAP
ENDCHAR
STARTCHAR 25CA
ENCODING 9674
SWIDTH 20740 0
DWIDTH 1037 0
BBX 0 0 0 0
BITMAP
ENDCHAR
STARTCHAR 25CB
ENCODING 9675
SWIDTH 20740 0
DWIDTH 1037 0
BBX 0 0 0 0
BITMAP
ENDCHAR
STARTCHAR 25D8
ENCODING 9688
SWIDTH 20740 0
DWIDTH 1037 0
BBX 0 0 0 0
BITMAP
ENDCHAR
STARTCHAR 25D9
ENCODING 9689
SWIDTH 20740 0
DWIDTH 1037 0
BBX 0 0 0 0
BITMAP
ENDCHAR
STARTCHAR 263A
ENCODING 9786
SWIDTH 20740 0
DWIDTH 1037 0
BBX 0 0 0 0
BITMAP
ENDCHAR
STARTCHAR 263B
ENCODING 9787
SWIDTH 20740 0
DWIDTH 1037 0
BBX 0 0 0 0
BITMAP
ENDCHAR
STARTCHAR 263C
ENCODING 9788
SWIDTH 20740 0
DWIDTH 1037 0
BBX 0 0 0 0
BITMAP
ENDCHAR
STARTCHAR 2640
ENCODING 9792
SWIDTH 20740 0
DWIDTH 1037 0
BBX 0 0 0 0
BITMAP
ENDCHAR
STARTCHAR 2642
ENCODING 9794
SWIDTH 20740 0
DWIDTH 1037 0
BBX 0 0 0 0
BITMAP
ENDCHAR
STARTCHAR 2660
ENCODING 9824
SWIDTH 20740 0
DWIDTH 1037 0
BBX 0 0 0 0
BITMAP
ENDCHAR
STARTCHAR 2663
ENCODING 9827
SWIDTH 20740 0
DWIDTH 1037 0
BBX 0 0 0 0
BITMAP
ENDCHAR
STARTCHAR 2665
ENCODING 9829
SWIDTH 20740 0
DWIDTH 1037 0
BBX 0 0 0 0
BITMAP
ENDCHAR
STARTCHAR 2666
ENCODING 9830
SWIDTH 20740 0
DWIDTH 1037 0
BBX 0 0 0 0
BITMAP
ENDCHAR
STARTCHAR 266A
ENCODING 9834
SWIDTH 20740 0
DWIDTH 1037 0
BBX 0 0 0 0
BITMAP
ENDCHAR
STARTCHAR 266B
ENCODING 9835
SWIDTH 20740 0
DWIDTH 1037 0
BBX 0 0 0 0
BITMAP
ENDCHAR
STARTCHAR F000
ENCODING 61440
SWIDTH 20740 0
DWIDTH 1037 0
BBX 0 0 0 0
BITMAP
ENDCHAR
STARTCHAR F001
ENCODING 61441
SWIDTH 20740 0
DWIDTH 1037 0
BBX 0 0 0 0
BITMAP
ENDCHAR
STARTCHAR F002
ENCODING 61442
SWIDTH 20740 0
DWIDTH 1037 0
BBX 0 0 0 0
BITMAP
ENDCHAR
ENDFONT
